<svg width="261" height="250" fill="none" xmlns="http://www.w3.org/2000/svg"><g clip-path="url(#clip0)"><path d="M246.626 4.53l.12 47.973c0 2.682-2.153 4.887-4.844 4.887l-76.368.178c-2.691 0-4.904-2.145-4.904-4.827l-.12-47.973a4.536 4.536 0 014.545-4.53L242.081 0a4.535 4.535 0 014.545 4.53z" fill="#4A56E2"/><path d="M234.307 45.769a4.472 4.472 0 01-4.485 4.47c-2.452 0-4.486-1.967-4.486-4.47a4.472 4.472 0 014.486-4.47c2.511 0 4.485 1.967 4.485 4.47z" fill="#A6A6A6"/><path d="M239.868 45.769a4.47 4.47 0 01-4.485 4.47c-2.452 0-4.485-1.967-4.485-4.47a4.471 4.471 0 014.485-4.47c2.452 0 4.485 1.967 4.485 4.47zM181.441 19.547h-11.123c-1.376 0-2.512-1.132-2.512-2.503v-6.138c0-1.37 1.136-2.503 2.512-2.503h11.123c1.376 0 2.512 1.132 2.512 2.503v6.138c0 1.37-1.136 2.503-2.512 2.503z" fill="#FFC727"/><path d="M236.699 14.362h-7.296c-1.675 0-3.05-1.37-3.05-3.039s1.375-3.04 3.05-3.04h7.296c1.674 0 3.05 1.371 3.05 3.04s-1.376 3.04-3.05 3.04z" fill="#fff"/><path d="M167.268 29.738l-.658.417h-.06c-.059 0-.119-.06-.119-.06-.06-.06 0-.178.06-.238l.897-.536c.059-.06.179 0 .239.06V33.79c0 .06-.06.179-.18.179-.059 0-.179-.06-.179-.179v-4.052zM168.703 33.611l2.213-1.966c.239-.239.419-.537.419-.894 0-.298-.12-.596-.299-.775-.24-.238-.539-.417-.897-.417-.299 0-.598.12-.838.298l-.239.179a.182.182 0 01-.239 0 .18.18 0 010-.239l.239-.238c.299-.238.658-.417 1.017-.417.418 0 .837.179 1.136.477.299.298.419.655.419 1.013 0 .417-.18.834-.479 1.132l-1.854 1.669h2.213c.06 0 .179.06.179.178 0 .06-.059.18-.179.18h-2.631c-.06 0-.12 0-.12-.06-.119.06-.119-.06-.06-.12zM175.521 29.5l-1.196 1.25c.299.06.598.18.777.418.299.298.479.715.479 1.132a1.635 1.635 0 01-1.615 1.61c-.419 0-.837-.18-1.136-.477a.18.18 0 010-.239c.059-.06.179-.06.239 0 .239.239.538.358.897.358.299 0 .658-.12.897-.358s.359-.596.359-.894c0-.298-.12-.655-.359-.894a1.218 1.218 0 00-.897-.357c-.06 0-.12 0-.12-.06a.18.18 0 010-.238l1.137-1.192h-1.795c-.119 0-.179-.06-.179-.179s.06-.179.179-.179h2.213c.12 0 .18.06.18.18 0 0-.06.059-.06.118zM179.468 32.896h-2.512c-.06 0-.06 0-.12-.06a.183.183 0 010-.238l2.692-3.397c.059-.06.179-.06.239 0l.06.06v3.218h.299c.119 0 .179.06.179.179 0 .06-.06.179-.179.179h-.299v.774c0 .06-.06.18-.18.18-.06 0-.179-.06-.179-.18v-.715zm0-.298v-2.741l-2.213 2.741h2.213zM185.328 33.373a.183.183 0 010-.238c.06-.06.18-.06.24 0 .239.238.538.357.897.357.299 0 .657-.119.897-.357a1.21 1.21 0 00.358-.894c0-.298-.119-.656-.358-.894a1.222 1.222 0 00-.897-.358c-.299 0-.658.12-.897.358-.06.06-.18.06-.24 0l-.059-.06v-.06-.059l.239-1.907c0-.06 0-.12.06-.12 0 0 .059-.059.119-.059h2.213c.12 0 .179.06.179.18 0 .118-.059.178-.179.178h-2.033l-.18 1.37c.239-.119.538-.238.778-.238.418 0 .837.12 1.136.477.299.298.478.715.478 1.132 0 .417-.119.835-.478 1.133a1.637 1.637 0 01-1.136.476c-.419.06-.838-.06-1.137-.417zM189.754 30.215c.299-.596.837-1.014 1.614-1.014.06 0 .18.06.18.18 0 .118-.06.178-.18.178-.657 0-1.076.358-1.375.834-.179.298-.239.596-.359.954.299-.298.718-.537 1.136-.537.838 0 1.555.716 1.555 1.55a1.54 1.54 0 01-1.555 1.55c-.837 0-1.495-.656-1.554-1.49v-.298c.119-.716.239-1.371.538-1.907zm-.06 2.145v.12c.06.595.598 1.072 1.196 1.072.658 0 1.256-.536 1.256-1.192 0-.656-.538-1.192-1.256-1.192-.658-.06-1.196.477-1.196 1.192zM194.179 33.611l1.734-4.112h-2.272c-.06 0-.179-.06-.179-.178 0-.06.059-.18.179-.18H196.212c.06 0 .06.06.06.12v.12l-1.794 4.29c0 .06-.06.12-.119.12h-.06c-.12 0-.18-.12-.12-.18zM198.784 29.142c.538 0 .957.417.957.953 0 .298-.18.596-.419.775.538.238.957.775.957 1.37 0 .835-.658 1.49-1.495 1.49a1.478 1.478 0 01-1.495-1.49c0-.655.359-1.191.957-1.43-.239-.178-.419-.476-.419-.774 0-.417.419-.894.957-.894zm0 4.35c.658 0 1.196-.536 1.196-1.192 0-.655-.538-1.191-1.196-1.191-.658 0-1.196.536-1.196 1.191 0 .656.538 1.192 1.196 1.192zm0-2.681a.663.663 0 00.658-.656.663.663 0 00-.658-.656.663.663 0 00-.658.656c0 .357.299.596.658.655zM207.097 29.142c.777 0 1.435.596 1.554 1.37v.477c0 .596-.119 1.311-.418 1.848-.299.536-.897 1.013-1.615 1.013-.119 0-.179-.06-.179-.179 0-.12.06-.179.179-.179.658 0 1.077-.357 1.376-.834.179-.298.299-.596.358-.954-.299.298-.717.537-1.136.537a1.542 1.542 0 01-1.555-1.55c-.119-.894.598-1.55 1.436-1.55zm1.255 1.55c0-.656-.538-1.193-1.255-1.193-.658 0-1.197.537-1.197 1.192 0 .656.539 1.192 1.197 1.192.717 0 1.255-.536 1.255-1.192zM209.848 31.466a3.2 3.2 0 01.418-1.609c.299-.417.718-.715 1.196-.715.479 0 .897.298 1.196.715.299.417.479 1.013.479 1.609 0 .656-.18 1.192-.479 1.61-.299.416-.717.714-1.196.714-.478 0-.897-.298-1.196-.715a3.378 3.378 0 01-.418-1.609zm.358 0c0 .596.18 1.073.419 1.43.239.358.538.537.897.537s.658-.18.897-.537c.239-.357.419-.894.419-1.43 0-.596-.18-1.073-.419-1.43-.239-.358-.538-.537-.897-.537s-.658.18-.897.537c-.299.357-.419.834-.419 1.43zM215.29 29.559l-.658.417h-.06c-.06 0-.12-.06-.12-.06-.06-.059 0-.178.06-.238l.897-.536c.06-.06.18 0 .239.06v4.409c0 .06-.059.18-.179.18-.06 0-.179-.06-.179-.18V29.56zM216.725 33.492l2.213-1.966c.239-.239.418-.537.418-.894 0-.298-.119-.596-.299-.775-.239-.238-.538-.417-.897-.417-.299 0-.598.12-.837.298l-.239.179c-.06.06-.18.06-.24 0a.183.183 0 010-.239l.24-.238c.299-.239.657-.417 1.016-.417.419 0 .838.178 1.137.477.299.297.418.655.418 1.013 0 .417-.179.834-.478 1.132l-1.854 1.668h2.213c.059 0 .179.06.179.18 0 .059-.06.178-.179.178h-2.632c-.06 0-.119 0-.119-.06-.12.06-.12-.06-.06-.119zM227.549 29.38l-1.196 1.252c.299.06.598.178.777.417.299.298.479.715.479 1.132a1.635 1.635 0 01-1.615 1.61c-.418 0-.837-.18-1.136-.477a.18.18 0 010-.239c.06-.06.179-.06.239 0 .239.238.538.358.897.358.299 0 .658-.12.897-.358s.359-.596.359-.894c0-.298-.12-.655-.359-.894a1.219 1.219 0 00-.897-.357c-.06 0-.119 0-.119-.06a.18.18 0 010-.238l1.136-1.192h-1.794c-.12 0-.18-.06-.18-.179 0-.12.06-.179.18-.179h2.212c.12 0 .18.06.18.18 0 0 0 .059-.06.118 0-.06 0 0 0 0zM231.496 32.777h-2.512c-.06 0-.06 0-.119-.06a.18.18 0 010-.238l2.691-3.397c.06-.06.179-.06.239 0l.06.06v3.218h.299c.119 0 .179.06.179.179 0 .06-.06.178-.179.178h-.299v.775c0 .06-.06.179-.18.179-.059 0-.179-.06-.179-.179v-.715zm0-.298v-2.741l-2.213 2.741h2.213zM233.35 33.254a.18.18 0 010-.238c.06-.06.179-.06.239 0 .239.238.538.357.897.357.299 0 .658-.12.897-.357.239-.239.359-.537.359-.894 0-.298-.12-.656-.359-.894a1.219 1.219 0 00-.897-.358c-.299 0-.658.12-.897.358a.182.182 0 01-.239 0l-.06-.06v-.06-.06l.239-1.906c0-.06 0-.12.06-.12 0 0 .06-.059.12-.059h2.212c.12 0 .18.06.18.179s-.06.179-.18.179h-2.033l-.179 1.37c.239-.119.538-.238.777-.238.419 0 .837.12 1.136.477.299.298.479.715.479 1.132 0 .417-.12.834-.479 1.132a1.635 1.635 0 01-1.136.477c-.419.06-.837-.06-1.136-.417zM237.775 30.095c.299-.596.838-1.013 1.615-1.013.06 0 .179.06.179.18 0 .118-.059.178-.179.178-.658 0-1.076.357-1.375.834-.18.298-.24.596-.359.954.299-.298.717-.537 1.136-.537.837 0 1.555.716 1.555 1.55 0 .834-.658 1.55-1.555 1.55-.837 0-1.495-.656-1.555-1.49v-.299c.12-.715.239-1.37.538-1.907zm-.059 2.146v.119c.059.596.598 1.073 1.196 1.073.657 0 1.256-.537 1.256-1.192 0-.656-.539-1.192-1.256-1.192-.658-.06-1.196.477-1.196 1.192z" fill="#F8F8F8"/><path d="M208.769 41.842l-40.905.106.005 2.026 40.905-.105-.005-2.027zM196.808 46.268l-28.944.075.005 2.026 28.945-.075-.006-2.026zM223.481 8.257l-20.393.053.005 2.026 20.393-.052-.005-2.027z" fill="#A6A6A6"/><path d="M240.261 101.967h-4.194c-11.046 0-20 8.954-20 20v4.04c0 11.046 8.954 20 20 20h4.194c11.046 0 20-8.954 20-20v-4.04c0-11.046-8.954-20-20-20z" fill="#24CCA7"/><path d="M238.912 109.058c.837 0 1.495.656 1.495 1.49v.775c2.033.238 3.827.894 5.442 1.907.538.298 1.076.834 1.076 1.669 0 1.072-.897 1.907-1.973 1.907-.359 0-.718-.119-1.077-.298-1.196-.715-2.392-1.252-3.588-1.55v6.675c5.322 1.311 7.595 3.456 7.595 7.151 0 3.814-2.99 6.377-7.416 6.794v2.086c0 .834-.657 1.49-1.495 1.49-.837 0-1.554-.656-1.554-1.49v-2.145c-2.632-.298-5.024-1.192-7.177-2.742a1.9 1.9 0 01-.957-1.668c0-1.073.838-1.907 1.914-1.907.419 0 .837.119 1.136.357 1.615 1.192 3.23 1.967 5.143 2.324v-6.853c-5.083-1.311-7.475-3.218-7.475-7.152 0-3.754 2.99-6.317 7.356-6.674v-.715c0-.775.717-1.431 1.555-1.431zm-1.436 11.86v-6.138c-2.212.238-3.349 1.37-3.349 2.92 0 1.43.718 2.324 3.349 3.218zm2.811 4.827v6.317c2.213-.238 3.469-1.371 3.469-3.039-.06-1.49-.778-2.444-3.469-3.278z" fill="#fff"/><path d="M35.796 64.66h-4.194c-11.046 0-20 8.955-20 20v4.04c0 11.046 8.954 20.001 20 20.001h4.194c11.046 0 20-8.954 20-20v-4.04c0-11.046-8.954-20-20-20z" fill="#24CCA7"/><path d="M43.477 95.411H22.845L17.76 77.175h29.005l1.076-4.231h3.29v1.192h-2.333L43.477 95.41zM23.8 94.22H42.58l3.946-15.852h-27.09L23.8 94.22z" fill="#fff"/><path d="M25.775 99.046l-1.136-.476 1.854-4.35h14.053l1.495 4.41-1.136.357-1.256-3.576H27.33l-1.554 3.635zM46.227 81.347H19.914v1.192h26.313v-1.192zM44.79 85.765l-23.802.105.006 1.191 23.801-.104-.005-1.192zM43.835 90.405H22.247v1.192h21.588v-1.192z" fill="#fff"/><path d="M33.908 77.89h-1.196v16.985h1.196V77.89zM29.276 77.81l-1.193.095 1.367 16.99 1.192-.095-1.366-16.99zM24.138 77.742l-1.177.216L26.1 94.955l1.176-.216-3.137-16.997zM37.296 77.824l-1.37 16.99 1.192.096 1.37-16.99-1.192-.096zM42.449 77.72l-3.134 16.997 1.176.215 3.134-16.997-1.176-.216zM25.237 101.371a2.549 2.549 0 01-2.572-2.563 2.548 2.548 0 012.572-2.563 2.548 2.548 0 012.571 2.563c0 1.43-1.196 2.563-2.571 2.563zm0-3.934c-.778 0-1.376.596-1.376 1.371s.598 1.371 1.376 1.371c.777 0 1.375-.596 1.375-1.37 0-.776-.658-1.372-1.375-1.372zM41.443 101.371a2.549 2.549 0 01-2.571-2.563 2.548 2.548 0 012.571-2.563 2.548 2.548 0 012.572 2.563 2.549 2.549 0 01-2.572 2.563zm0-3.934c-.777 0-1.375.596-1.375 1.371s.598 1.371 1.375 1.371c.778 0 1.376-.596 1.376-1.37 0-.776-.658-1.372-1.376-1.372z" fill="#fff"/><path d="M145.021 250c60.574 0 109.679-6.484 109.679-14.481 0-7.998-49.105-14.482-109.679-14.482-60.573 0-109.678 6.484-109.678 14.482 0 7.997 49.105 14.481 109.678 14.481z" fill="#4A56E2"/><path d="M32.533 234.029c17.57 0 31.815-2.722 31.815-6.079 0-3.357-14.244-6.079-31.815-6.079S.718 224.593.718 227.95c0 3.357 14.244 6.079 31.815 6.079z" fill="#4A56E2"/><path d="M155.487 12.694H59.564c-5.383 0-9.688 4.41-9.688 9.833v196.782c0 5.423 4.365 9.833 9.688 9.833h95.923c5.382 0 9.688-4.41 9.688-9.833V22.527c0-5.423-4.306-9.833-9.688-9.833zm3.648 200.536c0 5.185-3.887 9.356-8.671 9.356H64.647c-4.785 0-8.731-4.171-8.731-9.356V30.036c0-10.549 3.887-11.085 8.73-11.085H81.81c1.017 0 1.794 1.132 1.794 2.563v.596c0 3.277 1.794 3.277 4.007 3.277h39.769c2.212 0 4.007 0 4.007-3.277v-.596c0-1.43.777-2.563 1.794-2.563h17.163c4.784 0 8.671 1.37 8.671 11.085V213.23h.12z" fill="#263238"/><path d="M159.135 31.824V213.23c0 5.185-3.887 9.356-8.671 9.356H64.647c-4.785 0-8.732-4.171-8.732-9.356V31.824c0-10.549 3.888-12.873 8.732-12.873H81.81c1.017 0 1.794 1.132 1.794 2.563v.596c0 3.277 1.794 3.277 4.007 3.277h39.769c2.212 0 4.006 0 4.006-3.277v-.596c0-1.43.778-2.563 1.795-2.563h17.163c4.904 0 8.791 3.218 8.791 12.873z" fill="#fff"/><path d="M112.967 21.275h-10.824a.663.663 0 01-.658-.655c0-.358.299-.656.658-.656h10.824c.359 0 .658.298.658.656a.663.663 0 01-.658.655z" fill="#fff"/><path d="M113.027 120.739h-12.499v1.609h12.499v-1.609z" fill="#C7C7C7"/><path d="M80.747 44.1H70.434a8 8 0 00-8 8v10.222a8 8 0 008 8h10.313a8 8 0 008-8V52.1a8 8 0 00-8-8z" fill="#FFD8D0"/><path d="M78.401 60.608l-3.468-1.133s-1.794 1.371-2.99-.953c0 0-2.692.775-3.588-2.026 0 0-3.29-1.013-2.333-2.92.957-1.848 3.588.119 3.588.119s2.632-.239 3.529 2.443c0 0 2.511 0 2.511 2.324l2.751 2.146z" fill="#263238"/><path d="M67.577 54.29c.957.477 1.854.954 2.751 1.49a64.163 64.163 0 012.751 1.55l2.691 1.61c.897.535 1.794 1.072 2.631 1.727l-.657-.476-.658-.418L75.71 59l-2.69-1.55-2.692-1.55c-.957-.535-1.854-1.072-2.75-1.608z" fill="#fff"/><path d="M78.58 60.489l.06-3.636s1.855-1.251.06-3.099c0 0 1.615-2.264-.777-3.992 0 0 .12-3.457-1.974-3.159-2.093.298-1.076 3.397-1.076 3.397s-1.076 2.384 1.196 4.172c0 0-.837 2.383 1.376 3.099l1.136 3.218z" fill="#263238"/><path d="M76.129 48.212c.24 1.013.418 2.026.598 3.04l.598 3.098.598 3.1.299 1.549.18.774.179.775c-.3-1.013-.538-2.026-.778-3.04-.239-1.012-.418-2.025-.657-3.038-.18-1.014-.42-2.027-.599-3.1-.12-1.072-.239-2.145-.418-3.158z" fill="#fff"/><path d="M78.82 61.025l-3.409-3.516s-2.87.715-3.11-2.682c0 0-3.707-.477-3.229-4.35 0 0-3.468-2.98-1.316-4.768 2.153-1.728 4.306 2.026 4.306 2.026s3.29 1.133 2.99 4.828c0 0 3.05 1.31 1.854 4.112l1.914 4.35z" fill="#455A64"/><path d="M69.97 47.616a45.527 45.527 0 012.451 3.218c.18.298.419.537.598.835l.598.834c.18.298.359.536.538.834.18.298.36.537.539.835.358.536.717 1.132 1.076 1.668l.538.835.24.417.239.417c.717 1.132 1.315 2.324 1.973 3.516l-.239-.417-.24-.417-.238-.418-.24-.417-.538-.834-.538-.834-2.153-3.397c-.359-.536-.718-1.133-1.136-1.669l-.538-.834-.599-.834c-.358-.537-.777-1.073-1.136-1.67-.418-.595-.837-1.131-1.196-1.668z" fill="#fff"/><path d="M84.262 60.965c.06.06.12.18.18.239 1.674 2.622-.539 4.648-.599 5.602-.06.953.658 1.55.24 1.907-.42.298-.778-.596-1.735-.835-.717-.178-2.631.656-4.305-.238-.12-.06-.3-.179-.42-.238-.298-.18-.537-.418-.777-.775-.06-.06-.12-.179-.179-.239l-.12-.119c-.717-1.072-1.016-2.086-.956-2.98 0-.178.06-.417.06-.595.239-1.192.956-2.146 1.973-2.86 1.615-1.133 3.767-1.431 5.502.059.12.119.239.178.358.298.24.238.42.476.658.715.06 0 .12 0 .12.06z" fill="#fff"/><path d="M80.016 65.673l.24.358-2.213 1.609c-.12-.06-.3-.179-.419-.238l2.392-1.729zM78.162 65.137l.24.358-1.555 1.072c-.06-.06-.12-.178-.18-.238l-.12-.12 1.615-1.072zM84.262 60.965c.06.06.12.18.18.239l-1.555 1.072-.24-.357 1.555-1.073c0 .06.06.06.06.12zM83.544 60.131l-1.076.775-.24-.358 1.017-.715.3.298zM76.906 61.74l.24.358-1.555 1.072c0-.178.06-.417.06-.596l1.255-.834z" fill="#DBDBDB"/><path d="M70.747 72.467c.06 0 .12.06.12.12v.178c.358 0 .597.12.836.358.06.06.06.06.06.119 0 .06-.06.12-.12.12 0 0-.06 0-.06-.06-.238-.18-.478-.298-.717-.298v1.31c.718.18 1.017.418 1.017.895 0 .476-.419.834-1.017.894v.357c0 .06-.06.12-.12.12s-.119-.06-.119-.12v-.357c-.419-.06-.777-.18-1.076-.477-.06 0-.06-.06-.06-.12 0-.059.06-.119.12-.119s.06 0 .06.06c.238.238.537.417.956.417v-1.37c-.718-.18-1.017-.418-1.017-.894 0-.477.419-.835 1.017-.835v-.179c.06-.119.06-.119.12-.119zm-.06 1.788v-1.311c-.479 0-.778.298-.778.656 0 .297.12.476.778.655zm.18.298v1.311c.478 0 .777-.298.777-.655 0-.358-.12-.537-.778-.656zM72.54 75.864l1.555-1.43c.18-.179.3-.417.3-.656a.852.852 0 00-.24-.596c-.18-.178-.418-.298-.657-.298a.77.77 0 00-.599.239l-.179.119c-.06.06-.12.06-.18 0s-.06-.12 0-.179l.18-.179c.24-.178.478-.298.718-.298.299 0 .598.12.777.358.18.238.3.477.3.715 0 .298-.12.596-.36.834l-1.315 1.192h1.554c.06 0 .12.06.12.12s-.06.119-.12.119h-1.853c-.06 0-.06 0-.06-.06 0 .12 0 .06.06 0zM75.71 75.566c.12 0 .24.12.24.239s-.12.238-.24.238-.239-.12-.239-.239.12-.238.24-.238zM76.547 75.745c-.06-.06-.06-.12 0-.179.06-.06.12-.06.18 0 .18.179.418.239.658.239.239 0 .478-.06.657-.239.18-.179.24-.417.24-.655 0-.239-.06-.477-.24-.656-.179-.179-.418-.238-.657-.238-.24 0-.479.06-.658.238-.06.06-.12.06-.18 0v-.06-.06l.18-1.37c0-.06 0-.06.06-.06H78.4c.06 0 .12.06.12.12s-.06.119-.12.119h-1.435l-.12 1.013c.18-.12.36-.179.599-.179.299 0 .598.12.777.358.24.238.359.477.359.775 0 .297-.12.596-.36.774-.238.239-.537.358-.776.358-.42 0-.718-.06-.898-.298zM79.418 74.374c0-.477.12-.834.299-1.192a.955.955 0 01.837-.476c.359 0 .658.178.837.476.18.298.3.715.3 1.192s-.12.835-.3 1.192a.955.955 0 01-.837.477.955.955 0 01-.837-.477c-.24-.298-.299-.715-.299-1.192zm.18 0c0 .417.119.775.298 1.013.18.239.419.418.658.418.24 0 .479-.12.658-.418.18-.238.3-.596.3-1.013 0-.417-.12-.774-.3-1.013-.18-.238-.419-.417-.658-.417-.239 0-.478.12-.658.417-.179.239-.299.656-.299 1.013z" fill="#A6A6A6"/><path d="M111.845 44.1h-10.314a8 8 0 00-8 8v10.222a8 8 0 008 8h10.314a8 8 0 008-8V52.1a8 8 0 00-8-8z" fill="#FFD8D0"/><path d="M111.293 60.727a641.832 641.832 0 016.698 6.913c-.18.894-1.196 1.132-1.196 1.132s-3.469-3.516-6.758-6.794l-.359-.357-.239-.238a485.098 485.098 0 00-.957-.954c-.478-.477-.957-.954-1.375-1.43l-.24-.239c-1.375-1.37-2.392-2.383-2.691-2.741-1.495-1.55-8.85-4.708-8.85-4.708s-.598-.417.179-1.43c0 0 2.87 1.37 5.502 2.681l-6.22-3.933s-.06-.596.538-1.072l3.529 2.324-3.17-3.04s.06-.476.957-.894l5.502 5.662-3.887-5.125s.418-.537.957-.715c0 0 2.392 3.635 5.801 8.105l-3.529-6.02s.299-.417.957-.476c0 0 2.811 6.615 5.741 10.012.06.06.12.178.239.238.12.12.24.239.299.358l1.077 1.072.239.239.718.715.239.238c.06.239.179.358.299.477z" fill="#fff"/><path d="M102.382 47.557s2.811 6.615 5.741 10.011l-1.256 1.192c-1.375-1.37-2.392-2.383-2.691-2.741-1.495-1.55-8.85-4.708-8.85-4.708s-.598-.417.179-1.43c0 0 2.87 1.37 5.502 2.681l-6.22-3.933s-.06-.596.538-1.072l3.529 2.324-3.17-3.04s.06-.476.957-.894l5.502 5.662-3.887-5.125s.418-.537.957-.715c0 0 2.392 3.635 5.801 8.105l-3.529-6.02c-.06.18.18-.238.897-.297zM109.738 59.237l-1.256 1.192c-.478-.477-.957-.954-1.375-1.43l1.256-1.192c.119.12.239.238.299.357l1.076 1.073zM110.695 60.131l-1.256 1.192-.718-.715 1.256-1.192c.239.298.479.477.718.715zM111.293 60.727l-1.256 1.192-.359-.358 1.256-1.192.359.358z" fill="#455A64"/><path d="M102.143 72.467c.06 0 .12.06.12.12v.178c.358 0 .598.12.837.358.06.06.06.06.06.119 0 .06-.06.12-.12.12 0 0-.06 0-.06-.06-.239-.18-.478-.298-.717-.298v1.31c.717.18 1.016.418 1.016.895 0 .476-.418.834-1.016.894v.357c0 .06-.06.12-.12.12s-.12-.06-.12-.12v-.357c-.418-.06-.777-.18-1.076-.477-.06 0-.06-.06-.06-.12 0-.059.06-.119.12-.119.059 0 .059 0 .059.06.24.238.539.417.957.417v-1.37c-.717-.18-1.016-.418-1.016-.894 0-.477.418-.835 1.016-.835v-.179c0-.119 0-.119.12-.119zm-.12 1.788v-1.311c-.478 0-.777.298-.777.656 0 .297.12.476.777.655zm.18.298v1.311c.478 0 .777-.298.777-.655 0-.358-.119-.537-.777-.656zM104.416 73.063l-.479.298h-.06c-.06 0-.06 0-.119-.06-.06-.06 0-.119.059-.178l.658-.417c.06 0 .12 0 .18.06v3.099c0 .059-.06.118-.12.118a.128.128 0 01-.119-.119v-2.8zM105.851 75.566c.119 0 .239.12.239.239s-.12.238-.239.238a.256.256 0 01-.239-.239c0-.119.119-.238.239-.238zM106.509 74.374c0-.477.119-.834.299-1.192a.954.954 0 01.837-.476c.359 0 .658.178.837.476.179.298.299.715.299 1.192s-.12.835-.299 1.192a.954.954 0 01-.837.477.954.954 0 01-.837-.477c-.18-.298-.299-.715-.299-1.192zm.239 0c0 .417.119.775.299 1.013.179.239.418.418.658.418.239 0 .478-.12.657-.418.18-.238.299-.596.299-1.013 0-.417-.119-.774-.299-1.013-.179-.238-.418-.417-.657-.417-.24 0-.479.12-.658.417-.18.239-.299.656-.299 1.013zM109.917 74.374c0-.477.12-.834.299-1.192a.956.956 0 01.837-.476c.359 0 .658.178.838.476.179.298.299.715.299 1.192s-.12.835-.299 1.192a.957.957 0 01-.838.477.956.956 0 01-.837-.477c-.179-.298-.299-.715-.299-1.192zm.239 0c0 .417.12.775.299 1.013.18.239.419.418.658.418.24 0 .479-.12.658-.418.18-.238.299-.596.299-1.013 0-.417-.119-.774-.299-1.013-.179-.238-.418-.417-.658-.417-.239 0-.478.12-.658.417-.179.239-.299.656-.299 1.013z" fill="#A6A6A6"/><path d="M142.882 44.1h-10.313a8 8 0 00-8 8v10.222a8 8 0 008 8h10.313a8 8 0 008-8V52.1a8 8 0 00-8-8z" fill="#FFD8D0"/><path d="M129.891 60.37c2.034 6.674 8.373 5.84 10.167 5.303 1.794-.536 7.475-3.337 5.442-10.071-2.033-6.675-8.791-5.125-9.987-4.768-1.376.417-7.655 2.86-5.622 9.535z" fill="#fff"/><path d="M136.111 51.788s.299 2.503 4.724 1.013c-.059 0-3.05-3.218-4.724-1.013z" fill="#455A64"/><path d="M136.53 52.8s2.093.12 1.495-3.634c0 0-2.99 1.966-1.495 3.635z" fill="#455A64"/><path d="M136.35 52.145s-.717 1.967-3.947-.119c0 0 3.05-1.966 3.947.12z" fill="#455A64"/><path d="M136.231 51.669s-1.914 1.609 1.794 4.47c0-.06.956-4.292-1.794-4.47z" fill="#455A64"/><path d="M135.991 52.026s-2.81-.775-2.452 3.993c.06 0 4.306-1.49 2.452-3.993z" fill="#455A64"/><path d="M136.47 52.622s.359-2.503-1.734-4.231c0 0-1.197 0-1.496 1.251 0 0 2.393 1.311 2.572 3.516l.538-.357" fill="#263238"/><path d="M133.24 72.467c.06 0 .12.06.12.12v.178c.359 0 .598.12.837.358.06.06.06.06.06.119 0 .06-.06.12-.119.12 0 0-.06 0-.06-.06-.239-.18-.479-.298-.718-.298v1.31c.718.18 1.017.418 1.017.895 0 .476-.419.834-1.017.894v.357c0 .06-.06.12-.12.12-.059 0-.119-.06-.119-.12v-.357c-.419-.06-.778-.18-1.077-.477-.059 0-.059-.06-.059-.12 0-.059.059-.119.119-.119s.06 0 .06.06c.239.238.538.417.957.417v-1.37c-.718-.18-1.017-.418-1.017-.894 0-.477.419-.835 1.017-.835v-.179c0-.119.06-.119.119-.119zm-.119 1.788v-1.311c-.479 0-.778.298-.778.656.06.297.18.476.778.655zm.239.298v1.311c.479 0 .778-.298.778-.655 0-.358-.18-.537-.778-.656zM135.573 73.063l-.479.298h-.059c-.06 0-.06 0-.12-.06s0-.119.06-.178l.658-.417c.059 0 .119 0 .179.06v3.099c0 .059-.06.118-.12.118-.059 0-.119-.06-.119-.119v-2.8zM136.948 75.566c.12 0 .24.12.24.239s-.12.238-.24.238c-.119 0-.239-.12-.239-.239s.12-.238.239-.238zM137.785 75.745c-.059-.06-.059-.12 0-.179.06-.06.12-.06.18 0 .179.179.418.239.658.239.239 0 .478-.06.658-.239.179-.179.239-.417.239-.655 0-.239-.06-.477-.239-.656-.18-.179-.419-.238-.658-.238-.24 0-.479.06-.658.238-.06.06-.12.06-.18 0v-.06-.06l.18-1.37c0-.06 0-.06.06-.06H139.639c.06 0 .12.06.12.12s-.06.119-.12.119h-1.495l-.119 1.013a1.01 1.01 0 01.598-.179c.299 0 .598.12.777.358.239.238.359.477.359.775 0 .297-.12.596-.359.774-.239.239-.538.358-.777.358-.359 0-.598-.06-.838-.298zM140.656 74.374c0-.477.12-.834.299-1.192a.954.954 0 01.837-.476c.359 0 .658.178.837.476.18.298.299.715.299 1.192s-.119.835-.299 1.192a.954.954 0 01-.837.477.954.954 0 01-.837-.477c-.179-.298-.299-.715-.299-1.192zm.239 0c0 .417.12.775.299 1.013.18.239.419.418.658.418.239 0 .478-.12.658-.418.179-.238.299-.596.299-1.013 0-.417-.12-.774-.299-1.013-.18-.238-.419-.417-.658-.417-.239 0-.478.12-.658.417-.179.239-.299.656-.299 1.013z" fill="#A6A6A6"/><path d="M80.747 82.36H70.434a8 8 0 00-8 8v10.222a8 8 0 008 8h10.313a8 8 0 008-8V90.36a8 8 0 00-8-8z" fill="#FFD8D0"/><path d="M82.887 93.206v12.932c0 .775-1.615 1.252-7.057 1.252s-6.997-.477-6.997-1.252V93.206c0-3.456 3.827-5.661 3.827-6.376v-2.623h6.4v2.623c0 .715 3.827 2.92 3.827 6.376z" fill="#fff"/><path d="M79.478 83.075h-7.176v2.205h7.176v-2.205zM82.887 96.663H68.833v6.972h14.054v-6.972z" fill="#37474F"/><path d="M70.507 110.906c.06 0 .12.059.12.119v.179c.359 0 .598.119.837.357.06.06.06.06.06.119 0 .06-.06.12-.12.12 0 0-.06 0-.06-.06-.238-.179-.478-.298-.717-.298v1.311c.718.179 1.017.417 1.017.894 0 .477-.419.834-1.017.894v.358c0 .059-.06.119-.12.119s-.12-.06-.12-.119v-.358c-.418-.06-.777-.179-1.076-.477-.06 0-.06-.059-.06-.119 0-.059.06-.119.12-.119s.06 0 .06.06c.24.238.538.417.957.417v-1.371c-.718-.179-1.017-.417-1.017-.894 0-.477.419-.834 1.017-.834v-.179c0-.06.06-.119.12-.119zm-.06 1.788v-1.311c-.478 0-.777.297-.777.655 0 .298.12.536.778.656zm.18.298v1.311c.479 0 .778-.298.778-.656 0-.298-.18-.536-.778-.655zM74.275 111.383l-.837.893c.24.06.418.12.598.298.24.239.359.537.359.775 0 .298-.12.596-.36.775-.238.238-.537.357-.777.357-.299 0-.598-.119-.777-.357-.06-.06-.06-.119 0-.179.06-.059.12-.059.18 0 .179.179.418.239.657.239.24 0 .479-.06.658-.239.18-.179.24-.417.24-.655 0-.239-.06-.477-.24-.656-.18-.179-.418-.238-.658-.238-.06 0-.06 0-.12-.06s-.06-.119 0-.179l.838-.834H72.78c-.06 0-.12-.06-.12-.119 0-.06.06-.119.12-.119h1.555c.06 0 .12.059.12.119l-.18.179c.06 0 .06 0 0 0zM75.59 114.064c.12 0 .24.12.24.239s-.12.238-.24.238c-.119 0-.239-.119-.239-.238 0-.179.06-.239.24-.239zM76.249 112.872c0-.476.12-.834.299-1.192a.957.957 0 01.837-.476c.359 0 .658.179.837.476.18.298.299.716.299 1.192 0 .477-.12.835-.299 1.192a.955.955 0 01-.837.477.955.955 0 01-.838-.477 2.7 2.7 0 01-.298-1.192zm.239 0c0 .418.12.775.299 1.013.18.239.418.418.658.418.239 0 .478-.12.657-.418.18-.238.3-.595.3-1.013 0-.417-.12-.774-.3-1.013-.179-.238-.418-.417-.657-.417-.24 0-.479.119-.658.417-.18.239-.3.596-.3 1.013zM79.657 112.872c0-.476.12-.834.3-1.192a.957.957 0 01.837-.476c.358 0 .657.179.837.476.18.298.299.716.299 1.192 0 .477-.12.835-.3 1.192a.955.955 0 01-.837.477.955.955 0 01-.837-.477 2.7 2.7 0 01-.299-1.192zm.24 0c0 .418.119.775.298 1.013.18.239.42.418.658.418.24 0 .479-.12.658-.418.18-.238.3-.595.3-1.013 0-.417-.12-.774-.3-1.013-.18-.238-.418-.417-.658-.417-.239 0-.478.119-.657.417-.18.239-.3.596-.3 1.013z" fill="#A6A6A6"/><path d="M111.845 82.36h-10.314a8 8 0 00-8 8v10.222a8 8 0 008 8h10.314a8 8 0 008-8V90.36a8 8 0 00-8-8z" fill="#FFD8D0"/><path d="M112.25 88.021h-10.944v19.369h10.944V88.021z" fill="#fff"/><path d="M112.25 88.021h-10.944v19.369h10.944V88.021z" fill="#fff"/><path d="M112.25 95.173h-10.944v8.164h10.944v-8.164z" fill="#455A64"/><path d="M112.25 88.021h-10.944l1.375-2.681h8.253l1.316 2.681z" fill="#fff"/><path d="M112.25 88.021h-10.944l1.375-2.681h8.253l1.316 2.681z" fill="#DBDBDB"/><path d="M110.874 83.075h-8.253v2.265h8.253v-2.265z" fill="#fff"/><path d="M101.724 110.906c.06 0 .12.059.12.119v.179c.359 0 .598.119.837.357.06.06.06.06.06.119 0 .06-.06.12-.12.12 0 0-.059 0-.059-.06-.24-.179-.479-.298-.718-.298v1.311c.718.179 1.017.417 1.017.894 0 .477-.419.834-1.017.894v.358c0 .059-.06.119-.12.119-.059 0-.119-.06-.119-.119v-.358c-.419-.06-.778-.179-1.077-.477-.059 0-.059-.059-.059-.119 0-.059.059-.119.119-.119s.06 0 .06.06c.239.238.538.417.957.417v-1.371c-.718-.179-1.017-.417-1.017-.894 0-.477.419-.834 1.017-.834v-.179c0-.06.06-.119.119-.119zm-.119 1.788v-1.311c-.479 0-.778.297-.778.655 0 .298.18.536.778.656zm.179.298v1.311c.479 0 .778-.298.778-.656.059-.298-.12-.536-.778-.655zM103.459 114.303l1.555-1.431c.179-.178.299-.417.299-.655a.85.85 0 00-.24-.596c-.179-.179-.418-.298-.657-.298a.77.77 0 00-.598.238l-.18.12c-.06.059-.119.059-.179 0-.06-.06-.06-.12 0-.179l.179-.179c.239-.179.479-.298.718-.298.299 0 .598.119.777.358.18.238.299.476.299.715 0 .298-.119.596-.359.834l-1.315 1.192h1.555c.059 0 .119.06.119.119 0 .06-.06.119-.119.119h-1.854c-.06 0-.06 0-.06-.059 0 .119 0 .059.06 0zM106.628 114.064c.12 0 .239.12.239.239s-.119.238-.239.238c-.119 0-.239-.119-.239-.238 0-.179.12-.239.239-.239zM107.465 114.183c-.059-.059-.059-.119 0-.178.06-.06.12-.06.18 0 .179.178.418.238.658.238.239 0 .478-.06.657-.238.18-.179.24-.417.24-.656 0-.238-.06-.477-.24-.655-.179-.179-.418-.239-.657-.239-.24 0-.479.06-.658.239-.06.059-.12.059-.18 0v-.06-.06l.18-1.37c0-.06 0-.06.06-.06H109.319c.06 0 .12.06.12.119 0 .06-.06.12-.12.12h-1.435l-.12 1.013c.18-.12.359-.179.598-.179.299 0 .598.119.778.357.239.239.359.477.359.775 0 .298-.12.596-.359.775-.239.238-.538.357-.778.357-.418.06-.717-.059-.897-.298zM110.336 112.872c0-.476.12-.834.299-1.192a.955.955 0 01.837-.476c.359 0 .658.179.837.476.18.298.299.716.299 1.192 0 .477-.119.835-.299 1.192a.954.954 0 01-.837.477.954.954 0 01-.837-.477 2.706 2.706 0 01-.299-1.192zm.239 0c0 .418.12.775.299 1.013.18.239.419.418.658.418.239 0 .478-.12.658-.418.179-.238.299-.595.299-1.013 0-.417-.12-.774-.299-1.013-.18-.238-.419-.417-.658-.417-.239 0-.478.119-.658.417-.179.239-.299.596-.299 1.013z" fill="#A6A6A6"/><path d="M142.882 82.36h-10.313a8 8 0 00-8 8v10.222a8 8 0 008 8h10.313a8 8 0 008-8V90.36a8 8 0 00-8-8z" fill="#FFD8D0"/><path d="M142.809 93.206v12.932c0 .775-1.136 1.252-5.083 1.252-3.887 0-5.084-.477-5.084-1.252V93.206c0-3.456 2.751-5.661 2.751-6.376v-2.623h4.605v2.623c.06.715 2.811 2.92 2.811 6.376z" fill="#fff"/><path d="M140.297 83.075h-5.143v2.205h5.143v-2.205z" fill="#455A64"/><path d="M141.314 97.616h-7.236v5.006h7.236v-5.006z" fill="#DBDBDB"/><path d="M132.463 110.906c.06 0 .12.059.12.119v.179c.358 0 .598.119.837.357.06.06.06.06.06.119 0 .06-.06.12-.12.12 0 0-.06 0-.06-.06-.239-.179-.478-.298-.717-.298v1.311c.717.179 1.016.417 1.016.894 0 .477-.418.834-1.016.894v.358c0 .059-.06.119-.12.119s-.12-.06-.12-.119v-.358c-.418-.06-.777-.179-1.076-.477-.06 0-.06-.059-.06-.119 0-.059.06-.119.12-.119s.06 0 .06.06c.239.238.538.417.956.417v-1.371c-.717-.179-1.016-.417-1.016-.894 0-.477.418-.834 1.016-.834v-.179c0-.06.06-.119.12-.119zm-.12 1.788v-1.311c-.478 0-.777.297-.777.655 0 .298.179.536.777.656zm.18.298v1.311c.478 0 .777-.298.777-.656.06-.298-.119-.536-.777-.655zM134.197 114.303l1.555-1.431c.18-.178.299-.417.299-.655a.854.854 0 00-.239-.596c-.179-.179-.419-.298-.658-.298a.771.771 0 00-.598.238l-.179.12c-.06.059-.12.059-.18 0-.06-.06-.06-.12 0-.179l.18-.179c.239-.179.478-.298.717-.298.299 0 .598.119.778.358.179.238.299.476.299.715 0 .298-.12.596-.359.834l-1.316 1.192h1.555c.06 0 .12.06.12.119 0 .06-.06.119-.12.119h-1.854c-.06 0-.06 0-.06-.059 0 .119 0 .059.06 0zM137.367 114.064c.119 0 .239.12.239.239s-.12.238-.239.238c-.12 0-.239-.119-.239-.238 0-.179.119-.239.239-.239zM138.084 112.872c0-.476.12-.834.299-1.192a.958.958 0 01.838-.476c.359 0 .658.179.837.476.179.298.299.716.299 1.192 0 .477-.12.835-.299 1.192a.954.954 0 01-.837.477.957.957 0 01-.838-.477 2.706 2.706 0 01-.299-1.192zm.24 0c0 .418.119.775.299 1.013.179.239.418.418.658.418.239 0 .478-.12.657-.418.18-.238.299-.595.299-1.013 0-.417-.119-.774-.299-1.013-.179-.238-.418-.417-.657-.417-.24 0-.479.119-.658.417-.24.239-.299.596-.299 1.013zM141.433 112.872c0-.476.12-.834.299-1.192a.958.958 0 01.838-.476c.358 0 .657.179.837.476.179.298.299.716.299 1.192 0 .477-.12.835-.299 1.192a.956.956 0 01-.837.477.957.957 0 01-.838-.477 2.706 2.706 0 01-.299-1.192zm.24 0c0 .418.119.775.299 1.013.179.239.418.418.657.418.24 0 .479-.12.658-.418.18-.238.299-.595.299-1.013 0-.417-.119-.774-.299-1.013-.179-.238-.418-.417-.658-.417-.239 0-.478.119-.657.417-.18.239-.299.596-.299 1.013z" fill="#A6A6A6"/><path d="M80.747 131.406H70.434a8 8 0 00-8 8v10.222a8 8 0 008 8h10.313a8 8 0 008-8v-10.222a8 8 0 00-8-8z" fill="#FFD8D0"/><path d="M69.49 144.934c0 4.589 1.855 11.8 2.094 11.8h7.714c.24 0 2.87-6.138 2.87-12.336 0-6.436-4.484-7.569-4.484-7.986v-1.132-1.43h-4.545v2.503c0 .476-3.648 2.86-3.648 8.581zm8.672-6.436c2.213 0 4.007 6.019 2.392 6.615-2.272.834-4.425-6.615-2.392-6.615z" fill="#fff"/><path d="M76.01 138.498c.119-1.549-3.29-1.192-4.725 3.874-1.077 3.814.12 11.74 3.947 11.74 4.545 0 4.844-6.675 4.545-6.973-.24-.298-4.306-1.728-3.768-8.641z" fill="#EBEBEB"/><path d="M72.242 135.28h6.399l-.419-2.801H72.66l-.418 2.801z" fill="#455A64"/><path d="M70.507 160.906c.06 0 .12.059.12.119v.179c.359 0 .598.119.837.357.06.06.06.06.06.119 0 .06-.06.12-.12.12 0 0-.06 0-.06-.06-.238-.179-.478-.298-.717-.298v1.311c.718.179 1.017.417 1.017.894 0 .477-.419.834-1.017.894v.358c0 .059-.06.119-.12.119s-.12-.06-.12-.119v-.358c-.418-.06-.777-.179-1.076-.477-.06 0-.06-.059-.06-.119s.06-.119.12-.119.06 0 .06.059c.24.239.538.418.957.418v-1.371c-.718-.179-1.017-.417-1.017-.894 0-.477.419-.834 1.017-.834v-.179c.06-.06.06-.119.12-.119zm-.06 1.847v-1.311c-.478 0-.777.298-.777.656 0 .298.12.476.778.655zm.18.298v1.311c.479 0 .778-.298.778-.655 0-.358-.12-.537-.778-.656zM72.361 164.243c-.06-.06-.06-.119 0-.179.06-.059.12-.059.18 0 .18.179.418.239.657.239.24 0 .479-.06.658-.239.18-.179.24-.417.24-.655 0-.239-.06-.477-.24-.656-.18-.179-.418-.238-.657-.238-.24 0-.479.059-.658.238-.06.06-.12.06-.18 0v-.059-.06l.18-1.371c0-.059 0-.059.06-.059h1.614c.06 0 .12.059.12.119s-.06.119-.12.119H72.78l-.12 1.013c.18-.119.36-.179.598-.179.3 0 .598.12.778.358.239.238.359.477.359.775 0 .298-.12.596-.36.774-.239.239-.537.358-.777.358-.358 0-.657-.06-.897-.298zM75.53 164.064c.12 0 .24.119.24.239 0 .119-.12.238-.24.238-.119 0-.238-.119-.238-.238 0-.12.12-.239.239-.239zM76.249 162.872c0-.476.12-.834.299-1.192a.957.957 0 01.837-.476c.359 0 .658.179.837.476.18.298.299.716.299 1.192 0 .477-.12.835-.299 1.192a.955.955 0 01-.837.477.955.955 0 01-.838-.477c-.179-.298-.298-.715-.298-1.192zm.239 0c0 .418.12.775.299 1.013.18.239.418.418.658.418.239 0 .478-.12.657-.418.18-.238.3-.595.3-1.013 0-.417-.12-.774-.3-1.013-.179-.238-.418-.417-.657-.417-.24 0-.479.119-.658.417-.18.239-.3.656-.3 1.013zM79.657 162.872c0-.476.12-.834.3-1.192a.957.957 0 01.837-.476c.358 0 .657.179.837.476.18.298.299.716.299 1.192 0 .477-.12.835-.3 1.192a.955.955 0 01-.837.477.955.955 0 01-.837-.477c-.239-.298-.299-.715-.299-1.192zm.18 0c0 .418.12.775.299 1.013.18.239.418.418.657.418.24 0 .479-.12.658-.418.18-.238.3-.595.3-1.013 0-.417-.12-.774-.3-1.013-.18-.238-.418-.417-.657-.417-.24 0-.479.119-.658.417-.18.239-.3.656-.3 1.013z" fill="#A6A6A6"/><path d="M111.845 131.406h-10.314a8 8 0 00-8 8v10.222a8 8 0 008 8h10.314a8 8 0 008-8v-10.222a8 8 0 00-8-8z" fill="#FFD8D0"/><path d="M114.283 152.801h-15.13a2.739 2.739 0 01-2.751-2.741v-9.118a2.74 2.74 0 012.75-2.742h15.131a2.74 2.74 0 012.751 2.742v9.118c0 1.489-1.256 2.741-2.751 2.741z" fill="#fff"/><path d="M114.701 136.412H98.794v1.848H114.7v-1.848zM117.094 141.776H96.402v7.509h20.692v-7.509z" fill="#455A64"/><path d="M113.027 145.471c0 1.728-2.811 3.158-6.279 3.158-3.469 0-6.28-1.43-6.28-3.158s2.811-3.159 6.28-3.159c3.468 0 6.279 1.431 6.279 3.159z" fill="#fff"/><path d="M101.545 160.906c.06 0 .12.059.12.119v.179c.358 0 .598.119.837.357.06.06.06.06.06.119 0 .06-.06.12-.12.12 0 0-.06 0-.06-.06-.239-.179-.478-.298-.717-.298v1.311c.717.179 1.016.417 1.016.894 0 .477-.418.834-1.016.894v.358c0 .059-.06.119-.12.119s-.12-.06-.12-.119v-.358c-.418-.06-.777-.179-1.076-.477-.06 0-.06-.059-.06-.119s.06-.119.12-.119c.059 0 .059 0 .059.059.24.239.539.418.957.418v-1.371c-.717-.179-1.016-.417-1.016-.894 0-.477.418-.834 1.016-.834v-.179c0-.06.06-.119.12-.119zm-.12 1.847v-1.311c-.478 0-.777.298-.777.656 0 .298.179.476.777.655zm.24.298v1.311c.478 0 .777-.298.777-.655 0-.358-.179-.537-.777-.656zM105.193 163.885h-1.854c-.06-.059-.06-.119 0-.178l1.914-2.384c.06-.06.119-.06.179 0 0 0 0 .059.06.059v2.265h.239c.06 0 .12.06.12.119 0 .06-.06.119-.12.119h-.239v.596c0 .06-.06.12-.12.12-.059 0-.119-.06-.119-.12v-.596h-.06zm0-.238v-1.967l-1.555 1.967h1.555zM106.808 164.064c.119 0 .239.119.239.239 0 .119-.12.238-.239.238-.12 0-.24-.119-.24-.238 0-.12.12-.239.24-.239zM107.645 164.243c-.06-.06-.06-.119 0-.179.06-.059.119-.059.179 0 .18.179.419.239.658.239.239 0 .478-.06.658-.239.179-.179.239-.417.239-.655 0-.239-.06-.477-.239-.656-.18-.179-.419-.238-.658-.238-.239 0-.478.059-.658.238-.06.06-.119.06-.179 0v-.059-.06l.179-1.371c0-.059 0-.059.06-.059h1.615c.059 0 .119.059.119.119s-.06.119-.119.119h-1.436l-.119 1.013c.179-.119.359-.179.598-.179.299 0 .598.12.777.358.239.238.359.477.359.775 0 .298-.12.596-.359.774-.239.239-.538.358-.777.358-.419 0-.718-.06-.897-.298zM110.515 162.872c0-.476.12-.834.299-1.192a.958.958 0 01.837-.476c.359 0 .658.179.838.476.179.298.299.716.299 1.192 0 .477-.12.835-.299 1.192a.957.957 0 01-.838.477.956.956 0 01-.837-.477c-.179-.298-.299-.715-.299-1.192zm.239 0c0 .418.12.775.299 1.013.18.239.419.418.658.418.24 0 .479-.12.658-.418.18-.238.299-.595.299-1.013 0-.417-.119-.774-.299-1.013-.179-.238-.418-.417-.658-.417-.239 0-.478.119-.658.417-.179.239-.299.656-.299 1.013z" fill="#A6A6A6"/><path d="M142.882 131.406h-10.313a8 8 0 00-8 8v10.222a8 8 0 008 8h10.313a8 8 0 008-8v-10.222a8 8 0 00-8-8z" fill="#FFD8D0"/><path d="M143.945 147.974v6.972h-12.499v-6.972c0-2.444.539-8.82 6.22-8.82 5.741 0 6.279 6.376 6.279 8.82z" fill="#fff"/><path d="M144.304 155.9h-13.216a.663.663 0 01-.658-.656c0-.357.299-.655.658-.655h13.216c.359 0 .658.298.658.655a.663.663 0 01-.658.656zM139.699 137.723h-3.947v2.98h3.947v-2.98z" fill="#fff"/><path d="M140.118 136.293h-4.844v1.967h4.844v-1.967z" fill="#455A64"/><path d="M138.623 134.386h-1.794v2.265h1.794v-2.265z" fill="#455A64"/><path d="M135.872 133.552c-.479.357-.658 1.072.06 1.49.598.357 3.767-.418 4.126-.418.359.06 1.136.418 1.256.418.119 0 .478-.179.418-.358 0-.179-1.076-.953-1.913-1.132-.838-.179-3.289-.477-3.947 0z" fill="#455A64"/><path d="M132.583 160.906c.059 0 .119.059.119.119v.179c.359 0 .598.119.837.357.06.06.06.06.06.119 0 .06-.06.12-.119.12 0 0-.06 0-.06-.06-.239-.179-.479-.298-.718-.298v1.311c.718.179 1.017.417 1.017.894 0 .477-.419.834-1.017.894v.358c0 .059-.06.119-.119.119-.06 0-.12-.06-.12-.119v-.358c-.419-.06-.777-.179-1.076-.477-.06 0-.06-.059-.06-.119s.06-.119.119-.119c.06 0 .06 0 .06.059.239.239.538.418.957.418v-1.371c-.718-.179-1.017-.417-1.017-.894 0-.477.419-.834 1.017-.834v-.179c0-.06.06-.119.12-.119zm-.12 1.847v-1.311c-.478 0-.777.298-.777.656.059.298.179.476.777.655zm.239.298v1.311c.479 0 .778-.298.778-.655 0-.358-.18-.537-.778-.656zM136.35 161.442l-.837.894c.239.06.419.119.598.298.239.238.359.536.359.775 0 .298-.12.596-.359.775-.239.238-.538.357-.777.357-.299 0-.599-.119-.778-.357-.06-.06-.06-.12 0-.179.06-.06.12-.06.179 0 .18.179.419.238.658.238.24 0 .479-.059.658-.238.18-.179.239-.417.239-.656 0-.238-.059-.477-.239-.655-.179-.179-.418-.239-.658-.239-.059 0-.059 0-.119-.059-.06-.06-.06-.12 0-.179l.837-.834h-1.256c-.06 0-.12-.06-.12-.12 0-.059.06-.119.12-.119h1.555c.06 0 .12.06.12.119l-.18.179c.06 0 0 0 0 0zM137.606 164.064c.12 0 .239.119.239.239 0 .119-.119.238-.239.238s-.239-.119-.239-.238c0-.12.119-.239.239-.239zM138.443 164.243c-.06-.06-.06-.119 0-.179.06-.059.12-.059.18 0 .179.179.418.239.658.239.239 0 .478-.06.657-.239.18-.179.24-.417.24-.655 0-.239-.06-.477-.24-.656-.179-.179-.418-.238-.657-.238-.24 0-.479.059-.658.238-.06.06-.12.06-.18 0v-.059-.06l.18-1.371c0-.059 0-.059.059-.059h1.615c.06 0 .12.059.12.119s-.06.119-.12.119h-1.435l-.12 1.013c.18-.119.359-.179.598-.179.299 0 .598.12.778.358.239.238.359.477.359.775 0 .298-.12.596-.359.774-.239.239-.538.358-.778.358-.418 0-.657-.06-.897-.298zM141.314 162.872c0-.476.119-.834.299-1.192a.955.955 0 01.837-.476c.359 0 .658.179.837.476.18.298.299.716.299 1.192 0 .477-.119.835-.299 1.192a.954.954 0 01-.837.477.954.954 0 01-.837-.477c-.18-.298-.299-.715-.299-1.192zm.239 0c0 .418.12.775.299 1.013.179.239.419.418.658.418.239 0 .478-.12.658-.418.179-.238.299-.595.299-1.013 0-.417-.12-.774-.299-1.013-.18-.238-.419-.417-.658-.417-.239 0-.479.119-.658.417-.179.239-.299.656-.299 1.013z" fill="#A6A6A6"/><path d="M127.736 188.26H85.82a7.717 7.717 0 100 15.435h41.916a7.717 7.717 0 007.717-7.718 7.717 7.717 0 00-7.717-7.717z" fill="#263238"/><path d="M86.953 197.02H85.28l-.36.894c-.059.179-.179.239-.358.239h-.12c-.179-.06-.299-.298-.239-.477l1.495-3.993c.06-.179.24-.238.36-.238.178 0 .298.059.358.238l1.495 3.993c.06.179 0 .417-.24.477h-.119c-.18 0-.299-.06-.359-.239l-.239-.894zm-.299-.715l-.538-1.43-.538 1.43h1.076zM88.927 197.795v-3.993c0-.238.179-.357.358-.357h.778a2.394 2.394 0 012.392 2.383 2.395 2.395 0 01-2.392 2.384h-.778c-.239-.059-.358-.238-.358-.417zm.717-.417h.419c.897 0 1.615-.715 1.615-1.609s-.718-1.609-1.615-1.609h-.419v3.218zM93.591 197.795v-3.993c0-.238.18-.357.359-.357h.777a2.394 2.394 0 012.392 2.383 2.395 2.395 0 01-2.392 2.384h-.777c-.18-.059-.359-.238-.359-.417zm.778-.417h.418c.897 0 1.615-.715 1.615-1.609s-.718-1.609-1.615-1.609h-.418v3.218zM103.459 194.16h-1.077v3.635c0 .238-.179.358-.359.358a.385.385 0 01-.358-.358v-3.635h-1.077c-.239 0-.359-.179-.359-.358 0-.238.18-.357.359-.357h2.931c.179 0 .358.178.358.357-.059.179-.239.358-.418.358zM108.362 193.981a2.59 2.59 0 01.658 1.728c0 .656-.239 1.252-.658 1.728-.418.418-1.016.716-1.614.716-.658 0-1.256-.298-1.675-.716-.418-.417-.657-1.072-.657-1.728 0-.655.239-1.251.657-1.728.419-.477 1.017-.715 1.675-.715.598 0 1.196.298 1.614.715zm-.119 1.728c0-.477-.18-.894-.479-1.192-.299-.298-.657-.477-1.076-.477-.419 0-.837.179-1.076.477a1.661 1.661 0 00-.479 1.192c0 .477.18.894.479 1.192.299.298.657.477 1.076.477.419 0 .777-.179 1.076-.477.299-.298.479-.715.479-1.192zM112.19 195.709c0-1.371 1.136-2.443 2.512-2.443.598 0 1.136.179 1.555.536.179.119.179.358.059.536-.119.179-.358.179-.538.06a1.676 1.676 0 00-1.076-.358c-.479 0-.897.179-1.196.477a1.661 1.661 0 00-.479 1.192c0 .477.18.894.479 1.192.299.298.777.477 1.196.477a1.67 1.67 0 001.076-.358c.18-.119.419-.059.538.06.12.179.12.417-.059.536-.419.358-.957.537-1.555.537-1.376 0-2.512-1.073-2.512-2.444zM119.964 197.02h-1.674l-.359.894c-.06.179-.179.239-.359.239h-.119a.406.406 0 01-.24-.477l1.495-3.993c.06-.179.24-.238.359-.238.18 0 .299.059.359.238l1.495 3.993c.06.179 0 .417-.239.477h-.12c-.179 0-.299-.06-.359-.239l-.239-.894zm-.239-.715l-.538-1.43-.538 1.43h1.076zM125.107 197.557c.06.178-.06.417-.239.476h-.179c-.06 0-.18 0-.24-.059-.059-.06-.179-.119-.239-.239-.119-.178-.119-.417-.119-.834 0-.119-.06-.238-.06-.298l-.18-.179a.656.656 0 00-.359-.178h-.897v1.489a.385.385 0 01-.358.358c-.24 0-.359-.179-.359-.358v-3.992c0-.239.179-.358.359-.358h1.196c.837 0 1.435.656 1.435 1.43 0 .477-.179.835-.538 1.133l.239.238c.12.179.239.477.239.715v.417c.18.06.239.179.299.239zm-.957-2.682a.69.69 0 00-.717-.715h-.838v1.37h.838c.418 0 .717-.298.717-.655zM128.994 194.16h-1.076v3.635c0 .238-.18.358-.359.358s-.359-.179-.359-.358v-3.635h-1.076c-.239 0-.359-.179-.359-.358 0-.238.179-.357.359-.357h2.93c.18 0 .359.178.359.357-.06.179-.239.358-.419.358z" fill="#fff"/><path d="M172.83 240.286c1.315.417 38.393-.06 39.768-.953.539-.358.778-5.722.897-12.277v-.179c0-1.37.06-2.741.06-4.112v-.596c.06-9.416-.119-19.189-.119-19.189l-24.818.238.717 19.011v.775l.18 3.933v.417s-14.114 6.496-15.549 7.688c-1.376 1.072-2.452 4.827-1.136 5.244z" fill="#F7A9A0"/><path d="M172.83 240.286c1.315.417 38.393-.059 39.768-.953.539-.358.778-5.721.898-12.277v-.179c0-1.37.059-2.741.059-4.112v-.596l-24.16.06v.775l.179 3.933v.417s-14.113 6.496-15.548 7.688c-1.436 1.072-2.512 4.827-1.196 5.244z" fill="#EBEBEB"/><path d="M172.83 240.286c.777.238 15.19.179 26.433-.119 6.996-.179 12.857-.477 13.395-.834.539-.358.778-5.602.897-11.979v-.298-.238l-23.921.059v.417s-14.113 6.496-15.548 7.688c-1.495 1.132-2.572 4.887-1.256 5.304z" fill="#FFC727"/><path d="M173.189 238.856c6.279-.239 31.456-.596 37.675-.358.06 0 .06.06 0 .06-6.219.357-31.396.536-37.675.417-.12-.06-.12-.119 0-.119zM186.883 226.996c2.452-.476 5.442-.178 7.356 1.55.06.059 0 .179-.12.119-2.451-.715-4.724-1.192-7.236-1.43-.179.059-.179-.239 0-.239zM185.149 228.069c2.452-.477 5.442-.179 7.356 1.55.06.059 0 .178-.12.119-2.452-.715-4.724-1.192-7.236-1.43-.179.059-.179-.179 0-.239zM183.355 229.142c2.452-.477 5.442-.179 7.356 1.549.06.06 0 .179-.12.119-2.452-.715-4.724-1.191-7.236-1.43-.12.06-.179-.179 0-.238z" fill="#263238"/><path d="M184.79 225.149c1.735 1.311 4.007 1.847 6.1 2.563.239.059.359-.12.359-.298.06 0 .06-.06.06-.06-.718-2.026-2.153-4.172-3.887-5.542-1.017-.835-2.871-1.431-3.768-.06-.897 1.192.12 2.622 1.136 3.397zm-.657-1.967c-.479-2.681 2.451-1.311 3.169-.655.478.417.897.894 1.316 1.371.837 1.013 1.555 2.145 2.332 3.218-.957-.418-1.973-.775-2.99-1.133-1.196-.417-3.588-1.311-3.827-2.801z" fill="#263238"/><path d="M199.442 223.48c-.598-1.549-2.512-1.37-3.708-.774-1.973.953-3.887 2.681-5.023 4.529 0 .059 0 .059.06.119-.06.179.059.417.299.417 2.153-.238 4.485-.238 6.518-1.132 1.136-.536 2.452-1.728 1.854-3.159zm-5.203 3.218c-1.076.12-2.093.239-3.169.418.956-.894 1.913-1.788 2.99-2.563.538-.358 1.076-.775 1.614-1.073.897-.476 4.007-1.132 2.931 1.371-.598 1.371-3.11 1.669-4.366 1.847zM176.298 233.91c1.495-.06 2.931.595 3.768 1.489.777.835 1.495 2.027 1.435 3.338 0 .059-.06.059-.06 0-.418-2.444-2.631-4.529-5.143-4.708-.06-.06-.06-.119 0-.119zM209.309 232.837c2.811-.06 2.871 4.35.06 4.35-2.87 0-2.93-4.35-.06-4.35z" fill="#263238"/><path d="M199.203 240.107c6.997-.178 12.857-.476 13.395-.834.539-.358.778-5.602.897-11.979-2.87 2.563-10.046 8.94-14.292 12.813z" fill="#263238"/><path d="M221.031 96.484s-5.562 62.455-6.459 67.223c-.239 1.072-.359 6.972-.419 14.6-.179 16.568-.059 46.425-.059 46.425H187.96s.777-51.728 1.913-61.264c1.137-9.535 8.552-66.984 8.552-66.984h22.606z" fill="#455A64"/><path d="M189.096 220.143c4.067-.06 2.93-.119 6.997-.179 1.973 0 15.13-.119 16.984.179.06 0 .06.06 0 .06-1.854.298-15.011.178-16.984.178-4.067-.059-2.93-.059-6.997-.178-.06.059-.06-.06 0-.06zM209.13 190.584c0-3.754.06-7.569.06-11.323 0-3.635 0-7.33.179-10.965.359-7.39 1.854-14.661 2.93-21.991 1.077-7.33 1.974-14.66 2.751-22.05.897-8.284 1.735-16.508 2.572-24.791 0-.06.119-.06.06 0-1.256 14.72-2.632 29.499-4.665 44.159-.538 3.636-1.076 7.271-1.674 10.906-.598 3.695-1.197 7.33-1.496 11.085-.299 3.635-.358 7.27-.358 10.965-.06 3.755-.06 7.569-.12 11.323-.06 8.403-.179 21.276-.239 29.678 0 .179-.239.179-.239 0 .119-7.508.179-19.487.239-26.996z" fill="#263238"/><path d="M226.592 96.484s-11.063 62.455-11.96 67.223c-.239 1.072-.359 6.972-.419 14.6l-12.439-81.823h24.818z" fill="#263238"/><path d="M203.15 242.491c1.315.298 38.273-2.741 39.649-3.754.538-.358.359-5.781 0-12.277v-.179c-.06-1.37-.18-2.741-.24-4.112 0-.179 0-.357-.059-.596-.598-9.416-1.436-19.13-1.436-19.13l-24.758 2.027 2.093 18.891.06.775.419 3.933.059.417s-13.635 7.509-14.95 8.761c-1.316 1.132-2.153 4.886-.837 5.244z" fill="#F7A9A0"/><path d="M203.15 242.491c1.315.298 38.273-2.741 39.649-3.754.538-.358.359-5.781 0-12.277v-.179c-.06-1.37-.18-2.741-.24-4.112 0-.179 0-.357-.059-.596l-24.101 1.788.06.775.419 3.933.059.417s-13.635 7.509-14.95 8.761c-1.316 1.132-2.153 4.886-.837 5.244z" fill="#EBEBEB"/><path d="M203.15 242.491c1.315.298 38.273-2.741 39.649-3.755.538-.357.359-5.78 0-12.276v-.179l-23.861 1.728.059.418s-13.635 7.508-14.95 8.76c-1.376 1.192-2.213 4.946-.897 5.304z" fill="#FFC727"/><path d="M203.449 241.001c6.219-.655 31.336-2.801 37.556-2.98.059 0 .059.06 0 .06-6.16.775-31.337 2.741-37.556 3.039-.12 0-.12-.119 0-.119zM216.306 228.248c2.392-.656 5.442-.537 7.476 1.073.059.059 0 .178-.12.178-2.512-.536-4.784-.834-7.356-.894-.179-.059-.179-.357 0-.357z" fill="#263238"/><path d="M214.572 229.44c2.392-.656 5.442-.537 7.475 1.072.06.06 0 .179-.119.179-2.512-.536-4.785-.834-7.356-.894-.12-.059-.12-.298 0-.357z" fill="#263238"/><path d="M212.897 230.632c2.393-.656 5.442-.537 7.476 1.072.06.06 0 .179-.12.179-2.512-.536-4.784-.834-7.356-.894-.119-.059-.179-.298 0-.357zM214.034 226.579c1.854 1.192 4.126 1.55 6.219 2.146.239.059.359-.179.359-.358.06 0 .06-.06.06-.119-.837-1.967-2.452-4.053-4.246-5.304-1.077-.775-2.931-1.192-3.768.179-.837 1.37.299 2.741 1.376 3.456zm-.778-1.966c-.658-2.623 2.333-1.49 3.11-.894.478.357.957.834 1.435 1.311.957.953 1.735 2.026 2.572 3.039-1.017-.358-2.034-.596-3.05-.894-1.256-.357-3.708-1.073-4.067-2.562z" fill="#263238"/><path d="M228.566 223.838c-.718-1.49-2.572-1.192-3.768-.537-1.854 1.073-3.708 2.98-4.724 4.887 0 .06 0 .06.06.119 0 .179.119.418.299.358 2.152-.417 4.485-.536 6.398-1.549 1.137-.596 2.393-1.848 1.735-3.278zm-5.024 3.575c-1.016.239-2.093.358-3.109.656.897-.953 1.794-1.907 2.81-2.801.479-.417 1.017-.834 1.555-1.132.837-.537 3.947-1.431 3.05 1.132-.538 1.43-3.05 1.907-4.306 2.145zM205.601 236.055c1.496-.239 2.991.357 3.888 1.132.837.775 1.614 1.907 1.734 3.159 0 .059-.06.059-.06 0-.598-2.384-3.05-4.291-5.502-4.232-.06.06-.06-.059-.06-.059zM238.373 232.122c2.811-.298 3.23 4.052.419 4.35-2.811.298-3.229-4.052-.419-4.35z" fill="#263238"/><path d="M217.861 226.102l26.134-1.132s-7.117-57.092-7.236-60.608c-.359-9.118-6.399-67.938-6.399-67.938h-31.875s2.033 13.588 5.442 22.17c0 0 2.631.834 6.698 3.039 0 0 2.99 38.915 3.11 43.742.119 9.655 4.126 60.727 4.126 60.727z" fill="#455A64"/><path d="M218.579 221.335c4.066-.238 2.87-.238 6.997-.477 1.973-.119 15.07-.775 16.984-.536.059 0 .059.059 0 .059-1.854.358-14.951.835-16.984.894-4.067.12-2.931.06-6.997.12-.12.059-.12-.06 0-.06zM227.968 99.94c1.196 14.84 2.392 29.619 3.767 44.399 1.376 14.839 2.99 29.678 4.904 44.457 1.077 8.284 2.273 19.905 3.588 28.129 0 .06-.06.06-.06 0-2.631-14.601-4.545-32.777-6.219-47.557-1.674-14.779-2.99-29.559-4.186-44.338-.658-8.343-1.316-16.746-1.914-25.15-.06-.059.12-.059.12.06zM202.731 118.057c2.691.954 5.322 2.265 7.834 3.635.12.06.06.179-.06.179-2.631-1.132-5.322-2.205-7.894-3.456-.239-.119-.119-.417.12-.358zM201.894 100.06c0-.12.179-.12.179 0 0 3.099.179 5.84.419 8.76.119 1.371 1.196 8.82 3.588 8.284.418-.119.598-.477.658-1.073.059-.715-.18-1.609-.299-2.265-.24-1.549-.479-3.158-.598-4.708-.24-2.92-.24-5.899.119-8.82 0-.119.18-.059.18 0 0 4.053.119 8.165.717 12.217.299 1.967 1.256 4.887-.777 5.185-2.093.298-3.409-4.589-3.648-5.959-.837-3.814-.837-7.867-.538-11.621z" fill="#263238"/><path d="M205.96 117.283c.239.476.359 1.013.538 1.549.12.417.24.834.24 1.251 0 .06-.12.12-.18.06-.299-.357-.418-.834-.538-1.251l-.538-1.431c-.12-.298.359-.476.478-.178z" fill="#263238"/><path d="M100.229 227.533l-.119-1.192 63.091-3.218-4.664-28.01 1.196-.179 4.904 29.321-64.408 3.278z" fill="#C7C7C7"/><path d="M107.815 235.442a6.54 6.54 0 001.128-9.202c-2.238-2.852-6.372-3.355-9.234-1.124a6.539 6.539 0 00-1.128 9.201c2.238 2.852 6.372 3.355 9.234 1.125z" fill="#37474F"/><path d="M100.768 230.274c0 1.669 1.315 2.98 2.99 2.98a2.956 2.956 0 002.99-2.98 2.956 2.956 0 00-2.99-2.98c-1.615-.059-2.99 1.311-2.99 2.98z" fill="#EBEBEB"/><path d="M155.863 236.654c3.535-.836 5.721-4.369 4.883-7.892-.839-3.522-4.384-5.701-7.919-4.865-3.535.836-5.721 4.369-4.882 7.891.838 3.523 4.383 5.701 7.918 4.866z" fill="#37474F"/><path d="M151.301 230.274c0 1.669 1.315 2.98 2.99 2.98a2.956 2.956 0 002.99-2.98 2.956 2.956 0 00-2.99-2.98c-1.615-.059-2.99 1.311-2.99 2.98z" fill="#EBEBEB"/><path d="M111.472 234.803l-.06-1.192 63.092-3.218-6.16-36.77 1.197-.179 6.339 38.022-64.408 3.337z" fill="#C7C7C7"/><path d="M119.252 242.531a6.54 6.54 0 00.862-9.231 6.594 6.594 0 00-9.263-.859 6.54 6.54 0 00-.862 9.231 6.594 6.594 0 009.263.859z" fill="#37474F"/><path d="M112.07 237.485a2.956 2.956 0 002.99 2.98c1.675 0 2.99-1.311 2.99-2.98s-1.315-2.98-2.99-2.98a2.994 2.994 0 00-2.99 2.98z" fill="#EBEBEB"/><path d="M171.661 240.045c1.4-3.341-.183-7.18-3.535-8.575-3.353-1.395-7.206.183-8.605 3.523-1.4 3.341.183 7.181 3.535 8.576 3.353 1.395 7.206-.183 8.605-3.524z" fill="#37474F"/><path d="M162.604 237.485c0 1.669 1.315 2.98 2.99 2.98a2.956 2.956 0 002.99-2.98 2.956 2.956 0 00-2.99-2.98c-1.615 0-2.99 1.371-2.99 2.98z" fill="#EBEBEB"/><path d="M97.957 191.359l-9.21-41.836 62.793-10.131.658 43.743-.539.059-53.702 8.165zm-7.775-40.882l8.731 39.571 52.089-7.926-.598-41.3-60.222 9.655z" fill="#A6A6A6"/><path d="M104.768 147.534l-1.182.184 6.468 41.215 1.182-.184-6.468-41.215zM121.603 144.882l-1.188.13 4.607 41.644 1.189-.13-4.608-41.644zM138.016 142.489l-1.195.051 1.819 41.977 1.195-.052-1.819-41.976z" fill="#A6A6A6"/><path d="M151.497 152.659l-59.082 10.662.213 1.173 59.082-10.662-.213-1.173zM151.487 168.495l-56.075 8.3.176 1.179 56.075-8.3-.176-1.179z" fill="#A6A6A6"/><path d="M177.734 193.325l-26.732-10.31v-43.682l40.845 11.799-14.113 42.193zm-25.596-11.144l24.818 9.535 13.276-39.809-38.154-11.025v41.299h.06z" fill="#DBDBDB"/><path d="M151.787 152.679l-.428 1.113 34.515 13.17.428-1.113-34.515-13.17zM151.762 168.542l-.451 1.104 29.568 12.02.452-1.104-29.569-12.02z" fill="#DBDBDB"/><path d="M164.581 143.919l-5.568 41.708 1.185.157 5.569-41.707-1.186-.158zM177.816 147.729l-9.367 41.455 1.166.261 9.368-41.454-1.167-.262zM161.173 106.143l-10.181 33.852 1.146.342 10.181-33.851-1.146-.343zM201.546 114.186l-11.16 37.106 1.146.342 11.16-37.106-1.146-.342z" fill="#DBDBDB"/><path d="M159.299 104.471l-.483 2.335 45.807 9.395.483-2.335-45.807-9.395z" fill="#263238"/><path d="M132.642 153.933l11.303 5.185 18.599-3.695-11.124-3.158-18.778 1.668z" fill="#FFC727"/><path opacity=".1" d="M132.642 153.933l11.303 5.185 18.599-3.695-11.124-3.158-18.778 1.668z" fill="#000"/><path d="M152.258 155.542c.119 4.768 1.256 27.593-3.17 28.01-1.555.179-2.99-3.397-4.066-8.701-.12-.536-.24-1.073-.299-1.609-.359-1.967-.658-4.172-.957-6.436l-.18-1.609a110.293 110.293 0 01-.538-6.496c0-.537-.06-1.073-.06-1.609 0-.477-.06-.894-.06-1.371-.059-1.49-.059-2.98-.059-4.41v-1.609c.059-2.98.179-5.781.358-8.403.06-.536.06-1.013.12-1.49.658-6.674 1.914-11.502 3.648-11.978 3.708-.954 4.904 15.852 5.263 27.711z" fill="#E6A36E"/><path d="M149.327 172.05c-.059.06-.119.06-.179.119l-.06.06a9.304 9.304 0 00-4.066 2.741c-.12-.536-.24-1.073-.299-1.609 1.375-1.132 3.049-1.788 4.485-1.549h.119c.06 0 .12.119 0 .238zM148.789 165.197c-.06 0-.119.059-.179.059l-.06.06c-1.615.059-3.229.536-4.605 1.49-.06.059-.119.059-.179.119l-.18-1.609c1.675-.894 3.648-1.073 5.143-.417l.06.059h.06s.06.179-.06.239zM148.43 158.224h-.179-.12c-1.614-.298-3.229-.238-4.784.417l-.359.179c0-.536-.06-1.073-.06-1.609 1.854-.596 4.007-.358 5.443.655 0 0 .059 0 .059.06 0 0 .06 0 .06.06.06.059.12.238-.06.238zM148.191 150.894h-.179-.12c-1.615-.298-3.229-.238-4.784.417-.12.06-.18.06-.239.119v-1.609c1.794-.536 3.887-.298 5.262.715 0 0 .06 0 .06.06 0 0 .06 0 .06.06.06.059.06.238-.06.238zM148.191 142.253c-.06 0-.12 0-.179-.06h-.12c-1.495-.655-3.11-.953-4.665-.775.06-.536.06-1.013.12-1.49 1.794 0 3.708.716 4.844 1.967v.06l.06.059c.06.119.06.298-.06.239z" fill="#CC8A58"/><path d="M159.255 158.403c-.658 4.708-3.409 27.235-7.835 26.639-1.554-.179-2.392-3.993-2.571-9.416 0-.537-.06-1.073-.06-1.609 0-2.027 0-4.232.12-6.496 0-.537.059-1.073.119-1.609.12-2.086.359-4.291.598-6.436.06-.537.12-1.073.18-1.55.06-.417.119-.894.179-1.311.18-1.43.419-2.92.658-4.35.12-.537.179-1.073.299-1.55.538-2.86 1.136-5.602 1.794-8.105l.359-1.43c1.734-6.377 3.827-10.787 5.621-10.846 3.887-.239 2.213 16.448.539 28.069z" fill="#EDAA76"/><path d="M153.693 173.838c-.06.06-.12.06-.179.06l-.06.059c-1.615.179-3.11.715-4.486 1.728 0-.536-.059-1.072-.059-1.609 1.555-.774 3.289-1.013 4.724-.476 0 0 .06 0 .06.059h.06c0-.059.06.119-.06.179zM154.291 166.985h-.179-.12c-1.615-.298-3.229-.239-4.784.357-.06 0-.12.06-.18.06 0-.537.06-1.073.12-1.609 1.794-.477 3.767-.179 5.143.774l.06.06s.06 0 .06.06c0 .119 0 .298-.12.298zM155.128 160.131c-.06 0-.119 0-.179-.06h-.12c-1.555-.655-3.169-.953-4.784-.715-.12 0-.239.06-.359.06.06-.536.12-1.073.18-1.55 1.913-.119 4.006.596 5.262 1.967v.06l.06.059c.06 0 .06.179-.06.179zM156.085 152.92c-.06 0-.12 0-.179-.059h-.12c-1.555-.656-3.17-.954-4.784-.716-.12 0-.18.06-.299.06.119-.536.179-1.073.299-1.549 1.854-.12 3.887.655 5.083 1.966v.06l.06.059c.06.06.06.179-.06.179zM157.52 144.517c-.06 0-.119-.059-.179-.119-.06 0-.06 0-.12-.059-1.375-1.014-2.87-1.669-4.485-1.848l.359-1.43c1.794.417 3.528 1.549 4.425 3.039v.06s0 .059.06.059c.12.179.12.298-.06.298z" fill="#CC8A58"/><path d="M132.642 153.933s.718 22.765.479 23.659c-.239.894-1.615 11.562-1.495 11.86.119.298 10.884 6.436 11.243 6.078.358-.357 1.016-15.733 1.016-17.64s.12-18.832.12-18.832l-11.363-5.125z" fill="#FFC727"/><path d="M143.945 159.118l-1.136 36.412s17.462-5.125 17.582-5.423c.179-.298 1.016-10.608.777-12.217s1.316-22.467 1.316-22.467l-18.539 3.695z" fill="#FFC727"/><path opacity=".1" d="M143.945 159.118l-1.136 36.412s17.462-5.125 17.582-5.423c.179-.298 1.016-10.608.777-12.217s1.316-22.467 1.316-22.467l-18.539 3.695z" fill="#000"/><path d="M119.725 200.477l-21.768-9.059-.06-.298-9.21-41.776 27.031 11.026 4.007 40.107zm-20.752-9.953l19.317 8.046-3.708-37.426-24.28-9.892 8.671 39.272z" fill="#DBDBDB"/><path d="M97.778 153.12l-1.178.207 7.049 39.971 1.178-.207-7.05-39.971zM106.672 156.91l-1.184.168 5.629 39.411 1.184-.168-5.629-39.411z" fill="#DBDBDB"/><path d="M96.225 180.185l-.394 1.125 21.904 7.631.395-1.125-21.904-7.631zM92.713 163.572l-.44 1.108 23.904 9.443.441-1.108-23.905-9.443z" fill="#DBDBDB"/><path d="M119.665 200.417l-5.203-40.167 77.325-9.177-14.113 42.252-.359.06-57.65 7.032zm-3.827-39.154l4.904 37.843 56.094-6.853 13.277-39.75-74.275 8.76z" fill="#EBEBEB"/><path d="M132.973 158.66l-1.191.104 3.398 38.827 1.191-.104-3.398-38.827zM152.444 156.211l-2.288 39.503 1.194.069 2.288-39.504-1.194-.068zM172.197 153.824l-7.615 40.17 1.176.221 7.614-40.17-1.175-.221z" fill="#EBEBEB"/><path d="M186.301 164.962l-69.944 7.842.134 1.184 69.944-7.842-.134-1.184zM181.144 180.564l-63.286 6.594.124 1.186 63.286-6.595-.124-1.185z" fill="#EBEBEB"/><path d="M206.379 64.6c-3.229 5.007-15.07 23.243-22.486 23.243-4.485 0-19.615-7.569-22.904-10.131-3.887-2.98 6.578-12.396 9.269-11.264 3.349 1.37 12.379 6.675 14.532 6.675 1.914 0 7.356-6.079 17.642-12.754 5.263-3.516 6.758-.119 3.947 4.232z" fill="#F7A9A0"/><path d="M161.348 77.95c-1.376-.656-7.535-4.29-9.031-5.662-1.495-1.37-5.442-5.72-4.545-6.972.897-1.252 2.213-.06 2.213-.06s-1.375-2.086-.299-3.277c1.077-1.192 2.99.715 2.99.715s-1.256-2.265-.119-3.338c1.136-1.072 2.751 1.133 2.751 1.133s-1.256-2.026.059-2.503c1.615-.596 3.529 3.337 5.263 4.767.419.298 8.552 5.9 8.552 5.9l-7.834 9.297z" fill="#F7A9A0"/><path d="M155.188 60.37c1.435 2.92 2.512 3.933 5.263 5.602.059.059 0 .119-.06.06-2.811-1.431-4.366-2.504-5.323-5.603-.06-.179.06-.238.12-.06zM152.557 62.515c1.734 2.86 2.93 3.993 5.621 5.96.06 0 0 .119-.06.06-2.81-1.73-4.365-2.802-5.741-5.96 0-.12.12-.18.18-.06zM150.165 65.376c1.853 2.681 3.169 3.933 6.04 5.542.059.06 0 .119-.06.119-3.11-1.311-4.665-2.92-6.04-5.602-.12-.179-.06-.238.06-.06z" fill="#263238"/><path d="M149.327 66.031c2.034 6.675 8.373 5.84 10.167 5.304 1.794-.536 7.475-3.337 5.442-10.072-2.033-6.674-8.791-5.125-9.987-4.767-1.376.417-7.715 2.86-5.622 9.535z" fill="#FFC727"/><path d="M155.487 57.39s.299 2.503 4.724 1.013c0 0-2.99-3.159-4.724-1.013z" fill="#455A64"/><path d="M155.906 58.462s2.093.12 1.495-3.635c0 0-2.99 1.907-1.495 3.635z" fill="#455A64"/><path d="M155.786 57.747s-.718 1.967-3.947-.119c0 0 2.99-1.907 3.947.12z" fill="#455A64"/><path d="M155.607 57.27s-1.914 1.61 1.794 4.47c0 0 .957-4.231-1.794-4.47z" fill="#455A64"/><path d="M155.427 57.628s-2.81-.775-2.452 3.993c0 0 4.306-1.49 2.452-3.993z" fill="#455A64"/><path d="M155.906 58.224s.359-2.503-1.735-4.231c0 0-1.196 0-1.495 1.251 0 0 2.392 1.311 2.572 3.516l.538-.357" fill="#455A64"/><path d="M172.172 68.415s-1.136-3.874-2.033-5.483c-.897-1.609-6.339-6.317-7.416-5.185-1.435 1.43 1.196 4.768 2.691 6.258 0 0-3.289 3.337-1.913 6.138 1.315 2.86 8.671-1.728 8.671-1.728z" fill="#F7A9A0"/><path d="M162.424 58.284c-.359 2.264 1.734 4.052 3.11 5.602.119.119.06.238-.06.298-1.256 1.49-2.631 3.933-2.093 5.96 0 .059-.06.059-.06.059-.837-2.086.299-4.59 1.794-6.139-1.435-1.609-3.468-3.516-2.691-5.78z" fill="#263238"/><path d="M189.575 68.057l9.987 8.88s5.681-6.794 8.013-13.35c2.332-6.555-3.289-5.72-7.236-3.098-4.007 2.622-10.764 7.568-10.764 7.568z" fill="#FFC727"/><path d="M200.698 74.791c-4.366-3.456-7.655-7.091-8.432-7.806-.06-.06 0-.06.06-.06.717.715 5.143 4.47 8.432 7.807l-.06.06z" fill="#263238"/><path d="M207.575 63.588c-2.332 6.495-8.013 13.349-8.013 13.349l-4.605-4.112c3.05-4.231 7.954-10.966 10.405-14.243 2.213-.12 3.648 1.132 2.213 5.006z" fill="#263238"/><path d="M194.957 104.887c.598.596 37.376.238 37.556 0 .478-.656-5.143-24.315-9.389-33.254-5.442-11.502-8.313-12.455-9.987-13.111-2.213-.834-7.894-.477-8.851-.06-1.077.477-3.768 5.84-5.023 10.132-2.512 8.581-4.844 35.756-4.306 36.293z" fill="#FFC727"/><path d="M218.639 69.19c-.18 11.263-.658 24.612-3.828 28.367-4.724 5.721-16.625 11.561-21.469 12.634-2.033.476-7.714-14.78-5.502-15.257 4.605-.953 15.19-5.303 16.147-6.257.897-.894 4.605-11.86 7.535-20.322 3.529-10.19 7.236-5.661 7.117.834z" fill="#F7A9A0"/><path d="M190.352 94.338s-6.1 1.55-10.047 2.742c-2.213.655-5.861 2.145-7.236 3.397-2.093 1.847-9.628 10.846-7.475 12.693 1.973 1.669 7.415-6.853 7.415-6.853s-6.279 8.165-3.588 9.774c2.751 1.609 7.595-8.88 7.595-8.88s-6.279 8.522-3.229 9.714c2.332.894 7.296-8.343 7.296-8.343s-5.323 7.389-2.991 8.403c2.572 1.132 7.715-7.092 7.715-7.092 6.399 1.668 10.166-.179 12.618-1.788.658-.417-8.073-13.767-8.073-13.767z" fill="#F7A9A0"/><path d="M174.983 103.397c-.778.953-1.555 1.847-2.273 2.86-.718 1.014-1.316 2.027-1.914 3.099-1.435 2.563-1.973 4.41-1.913 4.351 1.016-2.622 3.409-6.198 4.126-7.211.718-1.073 1.316-2.086 1.974-3.099.059 0 0-.06 0 0zM178.631 105.781c-1.316 1.072-4.127 4.946-5.203 7.568-.06.119 0 .119.06 0 .897-1.251 4.305-6.317 5.143-7.568.059 0 .059 0 0 0zM182.159 107.33c-1.555 1.49-2.811 3.576-3.828 5.96-.059.119.06.119.12 0 1.256-2.027 2.213-3.576 3.827-5.9 0-.06-.059-.119-.119-.06z" fill="#263238"/><path d="M206.379 78.963l13.216 1.967s1.017-8.82-.598-15.555c-1.614-6.734-5.86-2.98-7.774 1.371-1.914 4.41-4.844 12.217-4.844 12.217z" fill="#FFC727"/><path d="M219.237 78.367c-5.562-.358-10.346-1.55-11.363-1.669-.06 0-.06-.06 0-.06 1.017.18 6.758.776 11.363 1.67.059 0 0 .06 0 .06z" fill="#263238"/><path d="M208.293 74.434c.598-1.49 1.495-3.635 1.973-5.125 0 0 0-.06-.06 0-.358.774-.717 1.609-1.076 2.443 0-.06 0-.12.06-.12.06-.476.179-.893.179-1.37-.119.477-.239.894-.359 1.37l-.179.895c-.179.417-.658 1.49-.778 1.907-.299.715-1.913 4.708-1.853 4.708.119 0 1.375.179 1.614.179.06 0 .06-.12 0-.12-.239 0-1.256-.178-1.375-.178.299-.775.598-1.49.957-2.265l.897-2.324zM220.433 72.229a8.39 8.39 0 00-.24 1.192c0 .119-.059.298-.059.417a49.818 49.818 0 00-.24-2.98h-.059c.119 1.669.059 3.337 0 4.947 0 .834-.06 1.609-.12 2.443 0 .417-.06.834-.06 1.251 0 .477-.06 1.371-.06 1.371-.239-.06-1.016-.12-1.255-.179-.06 0-.06.06 0 .06.239.06 1.435.238 1.435.238 0-.417.119-.953.179-1.37.06-.418.06-.775.12-1.192.06-.835.119-1.729.119-2.563v-1.43c.06-.358.18-.715.24-1.073.059-.417.119-.834.179-1.192-.06 0-.179 0-.179.06z" fill="#263238"/><path d="M205.362 64.362c2.034.596 5.801-2.324 7.356-4.827.12-.179-.06-2.026-.119-4.29a52.59 52.59 0 010-4.351c0-.298-8.971 1.609-8.971 1.609s.718 2.98.538 5.423c0 .179-.059.417-.119.596v.12c-.239 1.072-.658 5.124 1.315 5.72z" fill="#F7A9A0"/><path d="M212.06 50.894c-.538 2.324-2.392 7.986-7.116 7.807-.359 0-.658-.06-.897-.12v-.119c.06-.178.06-.357.119-.596.18-2.443-.538-5.423-.538-5.423s6.459-1.31 8.432-1.55z" fill="#263238"/><path d="M213.077 39.63c1.196 3.04.239 12.217-1.794 14.363-2.99 3.158-8.253 3.873-11.064.179-2.691-3.576-1.255-15.435 1.077-17.462 3.468-2.98 10.047-1.609 11.781 2.92z" fill="#F7A9A0"/><path d="M204.884 45.828c0-.06.06 0 0 0-.06.656 0 1.371.538 1.669v.06c-.717-.239-.717-1.192-.538-1.729z" fill="#263238"/><path d="M205.483 45.232c1.016 0 .897 2.027-.06 2.027-.897-.06-.778-2.027.06-2.027zM201.415 45.65c0-.06-.059 0 0 0-.059.655-.179 1.37-.777 1.549v.06c.718-.12.837-1.014.777-1.61z" fill="#263238"/><path d="M200.877 44.934c-1.016-.119-1.196 1.848-.239 1.967.897.179 1.076-1.847.239-1.967zM206.319 44.339c-.239-.06-.478-.18-.777-.298-.299-.12-.538-.18-.718-.477-.119-.12-.06-.417.12-.537.299-.238.717-.178 1.076-.06.359.12.658.358.837.716.24.417-.179.775-.538.656zM200.16 43.921c.299 0 .538-.119.837-.178.299-.06.538-.06.777-.299.12-.119.12-.357 0-.536-.239-.298-.658-.298-1.016-.238a1.41 1.41 0 00-.957.536c-.299.298 0 .715.359.715zM205.602 51.609c-.18.12-.299.298-.539.358-.239 0-.478-.12-.658-.18 0 0-.059 0 0 .06.12.239.479.418.778.358.239-.06.359-.298.419-.596.059 0 0 0 0 0zM205.063 49.762c-.359.536-.897.774-1.435.834-.239.06-.538 0-.777 0h-.24c-.059 0-.119-.06-.119-.12v-.119c0-.476.119-1.191.119-1.191-.179.06-1.076.417-1.076.178.239-2.026.538-4.35 1.196-6.317 0-.06.12-.06.12 0-.18 1.967-.658 3.934-.838 5.9.299-.119.778-.238 1.017-.238.06 0-.179 1.37-.179 1.609.717.06 1.315-.12 2.212-.536-.06-.12 0-.06 0 0z" fill="#263238"/><path d="M203.09 50.358s.419.596.957.834c.179.06.418.12.658.06.478-.12.538-.537.478-.954-.06-.298-.179-.596-.179-.596s-.718.656-1.914.656z" fill="#263238"/><path d="M204.047 51.192c.179.06.418.12.658.06.478-.12.538-.537.478-.954-.478.06-1.017.358-1.136.894z" fill="#FF6596"/><path d="M200.16 40.286c3.05 2.086 7.176-1.073 7.176-1.073.957 2.384 3.349 2.086 3.349 2.086s.598 5.125 1.973 5.125c2.093 0 2.691-7.032 2.034-8.402-.658-1.371-2.392-1.729-2.392-1.729s-.12-1.072-1.376-2.026c-1.435-1.073-6.279.357-6.279.357s-.359-.893-1.256-1.668c-.598-.477-1.376-.417-1.854.179.239.357.419.774.478 1.251.24 1.49-1.016 1.49-.956.12 0-.597.179-1.073.478-1.43-.598-.895-1.615-1.193-2.213-.716-1.016.953-1.674 6.198.838 7.926z" fill="#263238"/><path d="M211.761 47.14s1.854-3.04 3.23-2.384c1.375.655.059 4.946-1.436 5.661-1.555.656-2.153-.715-2.153-.715l.359-2.563z" fill="#F7A9A0"/><path d="M214.572 45.948c.06 0 .06.06 0 0-1.076.536-1.555 1.609-1.914 2.681.299-.417.718-.655 1.316-.298v.06c-.478-.06-.777 0-1.076.417-.18.239-.299.596-.479.894-.06.12-.239.06-.179-.06-.12-1.43.837-3.456 2.332-3.694z" fill="#263238"/><path d="M32.413 188.081c.24-5.781.12-11.561-.24-17.282-.777-11.86-2.75-23.66-5.441-35.281-1.495-6.495-3.409-12.932-5.323-19.368-.06-.179-.358-.119-.299.06 6.04 22.586 10.944 45.888 10.645 69.368-.12 6.555-.837 13.051-1.495 19.547 0 .179.3.239.3.06 1.195-5.543 1.614-11.383 1.853-17.104z" fill="#FFC727"/><path d="M21.11 116.21s-9.09 23.063-7.056 28.486c2.033 5.423 6.279 6.555 6.279 6.555s-5.562 7.927-1.675 15.376c3.888 7.449 12.559 7.092 13.157 15.554-.12 0 .359-35.28-10.705-65.971z" fill="#FFC727"/><path d="M30.738 167.64v-.119c-1.255-15.674-4.066-31.287-8.85-46.365 0-.059-.06-.059-.06 0a345.015 345.015 0 014.784 20.322c-1.196-1.192-2.75-1.907-4.365-2.443-.06 0-.06.059 0 .059 1.674.715 3.289 1.55 4.485 2.98.239 1.311.538 2.682.777 3.993-2.033-2.265-4.844-3.397-7.714-4.47-.06 0-.06.06 0 .06 2.93 1.192 5.86 2.741 7.894 5.244.717 3.814 1.315 7.688 1.853 11.502-1.495-1.55-3.349-2.622-5.442-3.099-.06 0-.12.06-.06.119 2.154.596 4.007 1.848 5.502 3.516h.06c.18 1.371.36 2.742.538 4.053-1.136-.954-2.392-1.729-3.827-2.265-.06 0-.06.06 0 .06 1.435.596 2.691 1.49 3.828 2.503h.06c.179 1.311.298 2.562.418 3.873-2.093-2.503-4.665-4.35-7.715-5.482-.06 0-.12.059-.06.119 2.99 1.311 5.622 3.337 7.595 5.84.06.06.12.06.18.06.18 1.966.359 3.993.538 5.959 0 0 .06.06.06 0-.18-1.966-.3-3.993-.479-6.019z" fill="#263238"/><path d="M23.383 136.77c-1.555-1.073-3.588-1.549-5.502-1.728-.06 0-.06.059 0 .059 1.974.298 3.588 1.013 5.442 1.788.06.06.12-.059.06-.119zM24.519 161.204c-1.256-.775-2.691-1.192-4.126-1.43-.06 0-.06.059 0 .059 1.435.239 2.75.775 4.066 1.43.06.06.12-.059.06-.059z" fill="#263238"/><path d="M56.394 145.113c-3.828 2.682-7.475 5.721-10.525 9.178-3.29 3.695-5.741 7.866-7.416 12.515-3.469 9.535-5.322 19.785-5.502 29.916a72.173 72.173 0 001.615 16.806c.06.179.359.119.299-.06a93.117 93.117 0 01.18-29.38c1.554-9.535 4.006-19.905 10.106-27.652 3.29-4.231 7.415-7.568 11.542-10.965.18-.239-.12-.537-.3-.358z" fill="#FFC727"/><path d="M34.267 189.869s3.11-5.244 7.714-9.774c4.545-4.529 8.433-7.747 8.97-10.786.599-2.98-4.544-5.245-4.544-5.245s6.339 1.133 8.013-1.49c1.735-2.622 2.572-17.938 2.572-17.938s-11.482 8.165-16.805 19.607c-5.382 11.442-5.92 25.626-5.92 25.626z" fill="#FFC727"/><path d="M52.985 148.51c-4.844 4.708-9.688 9.774-12.558 15.972a62.76 62.76 0 00-2.512 6.615c-.12.476-.3.893-.419 1.37v.06c-1.435 4.648-2.392 9.416-3.289 14.124 0 .059.06.059.06 0a113.196 113.196 0 011.674-7.211h.06c.957-.417 1.974-.656 2.99-.775.06 0 .06-.119 0-.119a12.56 12.56 0 00-2.99.536c.538-2.145 1.137-4.35 1.854-6.436a32.94 32.94 0 016.818-.894v-.06c-2.273-.119-4.486.12-6.698.596l.358-1.072c1.496-.358 2.99-.596 4.546-.775v-.06c-1.495.06-2.99.179-4.426.537.598-1.848 1.316-3.636 2.033-5.423.599-1.49 1.376-2.861 2.153-4.172 1.256-.298 2.392-.536 3.648-.656.06 0 .06-.059 0-.059-1.136-.06-2.332 0-3.408.357a79.56 79.56 0 011.913-2.86c2.572-.596 5.203-1.073 7.834-.596.06 0 .06-.06 0-.06-2.511-.655-5.023-.298-7.475.239.3-.358.538-.715.837-1.073 1.555-.477 3.17-.715 4.785-.775.06 0 .06-.059 0-.059-1.496-.12-3.05 0-4.486.417 2.153-2.622 4.486-5.125 6.818-7.569.12-.178 0-.238-.12-.119z" fill="#263238"/><path d="M52.865 158.939c-.777-.059-1.495-.179-2.272-.059-.12 0-.06.178 0 .178.777 0 1.495-.059 2.272 0 .06 0 .06-.119 0-.119zM44.613 173.778c-1.196 0-2.392.298-3.529.715v.06c1.197-.298 2.333-.417 3.529-.596.12 0 .12-.179 0-.179zM42.101 168.653c-.478 0-1.017.06-1.495.119-.06 0-.06.06 0 .06.478 0 1.017 0 1.495-.06.12 0 .12-.119 0-.119z" fill="#263238"/><path d="M.598 161.323c3.708 1.252 7.356 2.92 10.645 5.006 3.528 2.205 6.459 5.066 8.91 8.403 5.024 6.913 8.911 14.779 11.423 22.944 1.375 4.589 2.272 9.237 2.571 14.005 0 .178-.239.178-.239 0a80.557 80.557 0 00-6.937-23.779c-3.469-7.33-7.894-15.196-14.592-20.083-3.648-2.682-7.774-4.41-11.9-6.198-.24-.06-.12-.358.119-.298z" fill="#FFC727"/><path d="M28.885 192.431s-3.768-3.516-8.492-6.138c-4.725-2.622-8.612-4.35-9.808-6.674-1.196-2.325 2.512-5.304 2.512-5.304s-4.844 2.383-6.878.655C4.246 173.242 0 161.085 0 161.085s11.183 3.992 18.18 11.978c6.997 8.045 10.705 19.368 10.705 19.368z" fill="#FFC727"/><path d="M28.287 189.928c-5.622-10.488-13.037-19.964-23.264-26.162a51.273 51.273 0 017.476 5.841c-2.093-.06-4.186.298-6.04 1.251-.06 0 0 .06.06.06 2.033-.715 4.006-1.133 6.16-1.013h.059l1.076 1.072c-1.076.06-2.152.179-3.229.417v.06c1.136-.238 2.273-.298 3.409-.298a62.623 62.623 0 015.262 5.96 4.92 4.92 0 00-2.272.178c-.06 0-.06.12 0 .06.837-.119 1.615-.06 2.392-.06.3.418.598.775.897 1.192-2.272-.119-4.545.06-6.817.656-.06 0 0 .059 0 .059 2.332-.476 4.604-.596 6.997-.476.299.357.538.774.837 1.132-1.376-.06-2.691.119-4.067.477-.06 0-.06.119 0 .059 1.376-.298 2.751-.417 4.186-.298a151.996 151.996 0 013.469 5.066c-.598-.119-1.196-.06-1.794.119-.06 0 0 .06 0 .06.658-.06 1.256 0 1.913.119a97.774 97.774 0 012.871 4.648c.3.06.479-.059.419-.179z" fill="#263238"/><path d="M19.615 181.228c-1.076-.119-2.212.059-3.229.417v.059a29.77 29.77 0 013.23-.357c.06 0 .06-.119 0-.119zM9.808 168.474c-.479-.059-1.017 0-1.495.06-.06 0-.06.119 0 .06.478-.06.956-.06 1.495-.06.12.06.12-.06 0-.06z" fill="#263238"/><path d="M43.297 227.056H18.06l3.589-26.281.897-6.734h16.266l.897 6.734 3.588 26.281z" fill="#455A64"/><path d="M39.709 200.775h-18.06l.897-6.734h16.266l.897 6.734z" fill="#263238"/><path d="M41.144 191.657h-20.87v5.721h20.87v-5.721z" fill="#455A64"/></g><defs><clipPath id="clip0"><path fill="#fff" d="M0 0h260.261v250H0z"/></clipPath></defs></svg>